<svg xmlns="http://www.w3.org/2000/svg" xmlns:xlink="http://www.w3.org/1999/xlink" width="600" height="400" viewBox="0 0 2400 1600">
<defs>
  <clipPath id="clip320">
    <rect x="0" y="0" width="2400" height="1600"></rect>
  </clipPath>
</defs>
<path clip-path="url(#clip320)" d="M0 1600 L2400 1600 L2400 0 L0 0  Z" fill="#ffffff" fill-rule="evenodd" fill-opacity="1"></path>
<defs>
  <clipPath id="clip321">
    <rect x="480" y="0" width="1681" height="1600"></rect>
  </clipPath>
</defs>
<path clip-path="url(#clip320)" d="M193.936 1486.45 L2352.76 1486.45 L2352.76 123.472 L193.936 123.472  Z" fill="#ffffff" fill-rule="evenodd" fill-opacity="1"></path>
<defs>
  <clipPath id="clip322">
    <rect x="193" y="123" width="2160" height="1364"></rect>
  </clipPath>
</defs>
<path clip-path="url(#clip320)" d="M798.864 17.6457 Q789.952 17.6457 784.685 24.2892 Q779.46 30.9327 779.46 42.3968 Q779.46 53.8203 784.685 60.4638 Q789.952 67.1073 798.864 67.1073 Q807.776 67.1073 812.961 60.4638 Q818.186 53.8203 818.186 42.3968 Q818.186 30.9327 812.961 24.2892 Q807.776 17.6457 798.864 17.6457 M798.864 11.0023 Q811.583 11.0023 819.199 19.5497 Q826.815 28.0566 826.815 42.3968 Q826.815 56.6965 819.199 65.2439 Q811.583 73.7508 798.864 73.7508 Q786.103 73.7508 778.447 65.2439 Q770.831 56.737 770.831 42.3968 Q770.831 28.0566 778.447 19.5497 Q786.103 11.0023 798.864 11.0023 Z" fill="#000000" fill-rule="nonzero" fill-opacity="1"></path><path clip-path="url(#clip320)" d="M846.502 65.7705 L846.502 89.8329 L839.008 89.8329 L839.008 27.2059 L846.502 27.2059 L846.502 34.0924 Q848.852 30.0415 852.416 28.0971 Q856.022 26.1121 861.004 26.1121 Q869.268 26.1121 874.413 32.6746 Q879.598 39.2371 879.598 49.9314 Q879.598 60.6258 874.413 67.1883 Q869.268 73.7508 861.004 73.7508 Q856.022 73.7508 852.416 71.8063 Q848.852 69.8214 846.502 65.7705 M871.861 49.9314 Q871.861 41.7081 868.458 37.0496 Q865.096 32.3505 859.182 32.3505 Q853.267 32.3505 849.864 37.0496 Q846.502 41.7081 846.502 49.9314 Q846.502 58.1548 849.864 62.8538 Q853.267 67.5124 859.182 67.5124 Q865.096 67.5124 868.458 62.8538 Q871.861 58.1548 871.861 49.9314 Z" fill="#000000" fill-rule="nonzero" fill-opacity="1"></path><path clip-path="url(#clip320)" d="M899.326 14.324 L899.326 27.2059 L914.679 27.2059 L914.679 32.9987 L899.326 32.9987 L899.326 57.6282 Q899.326 63.1779 900.825 64.7578 Q902.364 66.3376 907.023 66.3376 L914.679 66.3376 L914.679 72.576 L907.023 72.576 Q898.394 72.576 895.113 69.3758 Q891.832 66.1351 891.832 57.6282 L891.832 32.9987 L886.363 32.9987 L886.363 27.2059 L891.832 27.2059 L891.832 14.324 L899.326 14.324 Z" fill="#000000" fill-rule="nonzero" fill-opacity="1"></path><path clip-path="url(#clip320)" d="M924.482 27.2059 L931.936 27.2059 L931.936 72.576 L924.482 72.576 L924.482 27.2059 M924.482 9.54393 L931.936 9.54393 L931.936 18.9825 L924.482 18.9825 L924.482 9.54393 Z" fill="#000000" fill-rule="nonzero" fill-opacity="1"></path><path clip-path="url(#clip320)" d="M982.856 35.9153 Q985.651 30.8922 989.54 28.5022 Q993.428 26.1121 998.695 26.1121 Q1005.78 26.1121 1009.63 31.0947 Q1013.48 36.0368 1013.48 45.1919 L1013.48 72.576 L1005.99 72.576 L1005.99 45.4349 Q1005.99 38.913 1003.68 35.7533 Q1001.37 32.5936 996.629 32.5936 Q990.836 32.5936 987.474 36.4419 Q984.111 40.2903 984.111 46.9338 L984.111 72.576 L976.617 72.576 L976.617 45.4349 Q976.617 38.8725 974.308 35.7533 Q971.999 32.5936 967.179 32.5936 Q961.467 32.5936 958.105 36.4824 Q954.742 40.3308 954.742 46.9338 L954.742 72.576 L947.248 72.576 L947.248 27.2059 L954.742 27.2059 L954.742 34.2544 Q957.294 30.082 960.859 28.0971 Q964.424 26.1121 969.326 26.1121 Q974.268 26.1121 977.711 28.6237 Q981.195 31.1352 982.856 35.9153 Z" fill="#000000" fill-rule="nonzero" fill-opacity="1"></path><path clip-path="url(#clip320)" d="M1048.97 49.7694 Q1039.93 49.7694 1036.45 51.8354 Q1032.97 53.9013 1032.97 58.8839 Q1032.97 62.8538 1035.56 65.2034 Q1038.19 67.5124 1042.69 67.5124 Q1048.89 67.5124 1052.61 63.1374 Q1056.38 58.7219 1056.38 51.4303 L1056.38 49.7694 L1048.97 49.7694 M1063.83 46.6907 L1063.83 72.576 L1056.38 72.576 L1056.38 65.6895 Q1053.83 69.8214 1050.02 71.8063 Q1046.21 73.7508 1040.7 73.7508 Q1033.73 73.7508 1029.6 69.8619 Q1025.51 65.9325 1025.51 59.3701 Q1025.51 51.7138 1030.62 47.825 Q1035.76 43.9361 1045.93 43.9361 L1056.38 43.9361 L1056.38 43.2069 Q1056.38 38.0623 1052.98 35.2672 Q1049.61 32.4315 1043.5 32.4315 Q1039.61 32.4315 1035.92 33.3632 Q1032.24 34.295 1028.83 36.1584 L1028.83 29.2718 Q1032.92 27.692 1036.77 26.9223 Q1040.62 26.1121 1044.27 26.1121 Q1054.11 26.1121 1058.97 31.2163 Q1063.83 36.3204 1063.83 46.6907 Z" fill="#000000" fill-rule="nonzero" fill-opacity="1"></path><path clip-path="url(#clip320)" d="M1079.19 9.54393 L1086.64 9.54393 L1086.64 72.576 L1079.19 72.576 L1079.19 9.54393 Z" fill="#000000" fill-rule="nonzero" fill-opacity="1"></path><path clip-path="url(#clip320)" d="M1149.15 20.1573 L1138.05 50.2555 L1160.29 50.2555 L1149.15 20.1573 M1144.53 12.096 L1153.8 12.096 L1176.85 72.576 L1168.35 72.576 L1162.84 57.061 L1135.57 57.061 L1130.07 72.576 L1121.44 72.576 L1144.53 12.096 Z" fill="#000000" fill-rule="nonzero" fill-opacity="1"></path><path clip-path="url(#clip320)" d="M1214.28 28.5427 L1214.28 35.5912 Q1211.12 33.9709 1207.72 33.1607 Q1204.32 32.3505 1200.67 32.3505 Q1195.12 32.3505 1192.33 34.0519 Q1189.57 35.7533 1189.57 39.156 Q1189.57 41.7486 1191.56 43.2475 Q1193.54 44.7058 1199.54 46.0426 L1202.09 46.6097 Q1210.03 48.3111 1213.35 51.4303 Q1216.71 54.509 1216.71 60.0587 Q1216.71 66.3781 1211.69 70.0644 Q1206.71 73.7508 1197.96 73.7508 Q1194.31 73.7508 1190.34 73.0216 Q1186.41 72.3329 1182.04 70.9151 L1182.04 63.2184 Q1186.17 65.3654 1190.18 66.4591 Q1194.19 67.5124 1198.12 67.5124 Q1203.39 67.5124 1206.22 65.73 Q1209.06 63.9071 1209.06 60.6258 Q1209.06 57.5877 1206.99 55.9673 Q1204.97 54.3469 1198.04 52.8481 L1195.45 52.2405 Q1188.52 50.7821 1185.44 47.7845 Q1182.36 44.7463 1182.36 39.4801 Q1182.36 33.0797 1186.9 29.5959 Q1191.44 26.1121 1199.78 26.1121 Q1203.91 26.1121 1207.56 26.7198 Q1211.21 27.3274 1214.28 28.5427 Z" fill="#000000" fill-rule="nonzero" fill-opacity="1"></path><path clip-path="url(#clip320)" d="M1257.51 28.5427 L1257.51 35.5912 Q1254.35 33.9709 1250.94 33.1607 Q1247.54 32.3505 1243.9 32.3505 Q1238.35 32.3505 1235.55 34.0519 Q1232.8 35.7533 1232.8 39.156 Q1232.8 41.7486 1234.78 43.2475 Q1236.77 44.7058 1242.76 46.0426 L1245.31 46.6097 Q1253.25 48.3111 1256.58 51.4303 Q1259.94 54.509 1259.94 60.0587 Q1259.94 66.3781 1254.91 70.0644 Q1249.93 73.7508 1241.18 73.7508 Q1237.54 73.7508 1233.57 73.0216 Q1229.64 72.3329 1225.26 70.9151 L1225.26 63.2184 Q1229.39 65.3654 1233.4 66.4591 Q1237.41 67.5124 1241.34 67.5124 Q1246.61 67.5124 1249.45 65.73 Q1252.28 63.9071 1252.28 60.6258 Q1252.28 57.5877 1250.22 55.9673 Q1248.19 54.3469 1241.26 52.8481 L1238.67 52.2405 Q1231.74 50.7821 1228.66 47.7845 Q1225.59 44.7463 1225.59 39.4801 Q1225.59 33.0797 1230.12 29.5959 Q1234.66 26.1121 1243 26.1121 Q1247.14 26.1121 1250.78 26.7198 Q1254.43 27.3274 1257.51 28.5427 Z" fill="#000000" fill-rule="nonzero" fill-opacity="1"></path><path clip-path="url(#clip320)" d="M1310.61 48.0275 L1310.61 51.6733 L1276.34 51.6733 Q1276.83 59.3701 1280.96 63.421 Q1285.13 67.4314 1292.55 67.4314 Q1296.84 67.4314 1300.85 66.3781 Q1304.9 65.3249 1308.87 63.2184 L1308.87 70.267 Q1304.86 71.9684 1300.65 72.8596 Q1296.44 73.7508 1292.1 73.7508 Q1281.25 73.7508 1274.89 67.4314 Q1268.57 61.1119 1268.57 50.3365 Q1268.57 39.1965 1274.56 32.6746 Q1280.6 26.1121 1290.81 26.1121 Q1299.96 26.1121 1305.27 32.0264 Q1310.61 37.9003 1310.61 48.0275 M1303.16 45.84 Q1303.08 39.7232 1299.72 36.0774 Q1296.4 32.4315 1290.89 32.4315 Q1284.65 32.4315 1280.88 35.9558 Q1277.15 39.4801 1276.59 45.8805 L1303.16 45.84 Z" fill="#000000" fill-rule="nonzero" fill-opacity="1"></path><path clip-path="url(#clip320)" d="M1330.22 14.324 L1330.22 27.2059 L1345.57 27.2059 L1345.57 32.9987 L1330.22 32.9987 L1330.22 57.6282 Q1330.22 63.1779 1331.72 64.7578 Q1333.26 66.3376 1337.92 66.3376 L1345.57 66.3376 L1345.57 72.576 L1337.92 72.576 Q1329.29 72.576 1326.01 69.3758 Q1322.73 66.1351 1322.73 57.6282 L1322.73 32.9987 L1317.26 32.9987 L1317.26 27.2059 L1322.73 27.2059 L1322.73 14.324 L1330.22 14.324 Z" fill="#000000" fill-rule="nonzero" fill-opacity="1"></path><path clip-path="url(#clip320)" d="M1402.29 20.1573 L1391.19 50.2555 L1413.43 50.2555 L1402.29 20.1573 M1397.67 12.096 L1406.94 12.096 L1429.99 72.576 L1421.49 72.576 L1415.98 57.061 L1388.72 57.061 L1383.21 72.576 L1374.58 72.576 L1397.67 12.096 Z" fill="#000000" fill-rule="nonzero" fill-opacity="1"></path><path clip-path="url(#clip320)" d="M1438.5 9.54393 L1445.95 9.54393 L1445.95 72.576 L1438.5 72.576 L1438.5 9.54393 Z" fill="#000000" fill-rule="nonzero" fill-opacity="1"></path><path clip-path="url(#clip320)" d="M1461.55 9.54393 L1469 9.54393 L1469 72.576 L1461.55 72.576 L1461.55 9.54393 Z" fill="#000000" fill-rule="nonzero" fill-opacity="1"></path><path clip-path="url(#clip320)" d="M1502.18 32.4315 Q1496.19 32.4315 1492.7 37.1306 Q1489.22 41.7891 1489.22 49.9314 Q1489.22 58.0738 1492.66 62.7728 Q1496.15 67.4314 1502.18 67.4314 Q1508.14 67.4314 1511.62 62.7323 Q1515.1 58.0333 1515.1 49.9314 Q1515.1 41.8701 1511.62 37.1711 Q1508.14 32.4315 1502.18 32.4315 M1502.18 26.1121 Q1511.9 26.1121 1517.45 32.4315 Q1523 38.7509 1523 49.9314 Q1523 61.0714 1517.45 67.4314 Q1511.9 73.7508 1502.18 73.7508 Q1492.42 73.7508 1486.87 67.4314 Q1481.36 61.0714 1481.36 49.9314 Q1481.36 38.7509 1486.87 32.4315 Q1492.42 26.1121 1502.18 26.1121 Z" fill="#000000" fill-rule="nonzero" fill-opacity="1"></path><path clip-path="url(#clip320)" d="M1568.01 28.9478 L1568.01 35.9153 Q1564.85 34.1734 1561.65 33.3227 Q1558.49 32.4315 1555.25 32.4315 Q1548 32.4315 1543.99 37.0496 Q1539.98 41.6271 1539.98 49.9314 Q1539.98 58.2358 1543.99 62.8538 Q1548 67.4314 1555.25 67.4314 Q1558.49 67.4314 1561.65 66.5807 Q1564.85 65.6895 1568.01 63.9476 L1568.01 70.8341 Q1564.89 72.2924 1561.53 73.0216 Q1558.21 73.7508 1554.44 73.7508 Q1544.19 73.7508 1538.15 67.3098 Q1532.12 60.8689 1532.12 49.9314 Q1532.12 38.832 1538.19 32.472 Q1544.31 26.1121 1554.92 26.1121 Q1558.37 26.1121 1561.65 26.8413 Q1564.93 27.5299 1568.01 28.9478 Z" fill="#000000" fill-rule="nonzero" fill-opacity="1"></path><path clip-path="url(#clip320)" d="M1601.59 49.7694 Q1592.56 49.7694 1589.07 51.8354 Q1585.59 53.9013 1585.59 58.8839 Q1585.59 62.8538 1588.18 65.2034 Q1590.82 67.5124 1595.31 67.5124 Q1601.51 67.5124 1605.24 63.1374 Q1609 58.7219 1609 51.4303 L1609 49.7694 L1601.59 49.7694 M1616.46 46.6907 L1616.46 72.576 L1609 72.576 L1609 65.6895 Q1606.45 69.8214 1602.64 71.8063 Q1598.84 73.7508 1593.33 73.7508 Q1586.36 73.7508 1582.23 69.8619 Q1578.14 65.9325 1578.14 59.3701 Q1578.14 51.7138 1583.24 47.825 Q1588.38 43.9361 1598.55 43.9361 L1609 43.9361 L1609 43.2069 Q1609 38.0623 1605.6 35.2672 Q1602.24 32.4315 1596.12 32.4315 Q1592.23 32.4315 1588.55 33.3632 Q1584.86 34.295 1581.46 36.1584 L1581.46 29.2718 Q1585.55 27.692 1589.4 26.9223 Q1593.25 26.1121 1596.89 26.1121 Q1606.74 26.1121 1611.6 31.2163 Q1616.46 36.3204 1616.46 46.6907 Z" fill="#000000" fill-rule="nonzero" fill-opacity="1"></path><path clip-path="url(#clip320)" d="M1639.18 14.324 L1639.18 27.2059 L1654.54 27.2059 L1654.54 32.9987 L1639.18 32.9987 L1639.18 57.6282 Q1639.18 63.1779 1640.68 64.7578 Q1642.22 66.3376 1646.88 66.3376 L1654.54 66.3376 L1654.54 72.576 L1646.88 72.576 Q1638.25 72.576 1634.97 69.3758 Q1631.69 66.1351 1631.69 57.6282 L1631.69 32.9987 L1626.22 32.9987 L1626.22 27.2059 L1631.69 27.2059 L1631.69 14.324 L1639.18 14.324 Z" fill="#000000" fill-rule="nonzero" fill-opacity="1"></path><path clip-path="url(#clip320)" d="M1664.34 27.2059 L1671.79 27.2059 L1671.79 72.576 L1664.34 72.576 L1664.34 27.2059 M1664.34 9.54393 L1671.79 9.54393 L1671.79 18.9825 L1664.34 18.9825 L1664.34 9.54393 Z" fill="#000000" fill-rule="nonzero" fill-opacity="1"></path><path clip-path="url(#clip320)" d="M1704.97 32.4315 Q1698.97 32.4315 1695.49 37.1306 Q1692.01 41.7891 1692.01 49.9314 Q1692.01 58.0738 1695.45 62.7728 Q1698.93 67.4314 1704.97 67.4314 Q1710.92 67.4314 1714.41 62.7323 Q1717.89 58.0333 1717.89 49.9314 Q1717.89 41.8701 1714.41 37.1711 Q1710.92 32.4315 1704.97 32.4315 M1704.97 26.1121 Q1714.69 26.1121 1720.24 32.4315 Q1725.79 38.7509 1725.79 49.9314 Q1725.79 61.0714 1720.24 67.4314 Q1714.69 73.7508 1704.97 73.7508 Q1695.21 73.7508 1689.66 67.4314 Q1684.15 61.0714 1684.15 49.9314 Q1684.15 38.7509 1689.66 32.4315 Q1695.21 26.1121 1704.97 26.1121 Z" fill="#000000" fill-rule="nonzero" fill-opacity="1"></path><path clip-path="url(#clip320)" d="M1775.86 45.1919 L1775.86 72.576 L1768.41 72.576 L1768.41 45.4349 Q1768.41 38.994 1765.9 35.7938 Q1763.38 32.5936 1758.36 32.5936 Q1752.32 32.5936 1748.84 36.4419 Q1745.36 40.2903 1745.36 46.9338 L1745.36 72.576 L1737.86 72.576 L1737.86 27.2059 L1745.36 27.2059 L1745.36 34.2544 Q1748.03 30.163 1751.64 28.1376 Q1755.28 26.1121 1760.02 26.1121 Q1767.84 26.1121 1771.85 30.9732 Q1775.86 35.7938 1775.86 45.1919 Z" fill="#000000" fill-rule="nonzero" fill-opacity="1"></path><path clip-path="url(#clip322)" d="M1273.33 804.964 L1916.25 804.964 L1916.24 802.009 L1916.22 799.055 L1916.19 796.1 L1916.14 793.146 L1916.08 790.192 L1916 787.239 L1915.91 784.285 L1915.81 781.333 L1915.7 778.38 L1915.57 775.428 L1915.43 772.477 L1915.27 769.527 L1915.1 766.577 L1914.92 763.628 L1914.72 760.68 L1914.51 757.733 L1914.29 754.787 L1914.05 751.842 L1913.8 748.898 L1913.53 745.955 L1913.26 743.014 L1912.96 740.074 L1912.66 737.135 L1912.34 734.197 L1912.01 731.261 L1911.66 728.327 L1911.3 725.394 L1910.93 722.463 L1910.55 719.534 L1910.15 716.607 L1909.73 713.681 L1909.31 710.757 L1908.87 707.836 L1908.41 704.916 L1907.95 701.998 L1907.47 699.083 L1906.97 696.17 L1906.47 693.259 L1905.95 690.351 L1905.41 687.445 L1904.87 684.541 L1904.31 681.64 L1903.73 678.742 L1903.15 675.846 L1902.55 672.953 L1901.93 670.063 L1901.31 667.175 L1900.67 664.291 L1900.02 661.409 L1273.33 804.964  Z" fill="#009af9" fill-rule="evenodd" fill-opacity="1"></path>
<polyline clip-path="url(#clip322)" style="stroke:#000000; stroke-linecap:round; stroke-linejoin:round; stroke-width:4; stroke-opacity:1; fill:none" points="1273.33,804.964 1916.25,804.964 1916.24,802.009 1916.22,799.055 1916.19,796.1 1916.14,793.146 1916.08,790.192 1916,787.239 1915.91,784.285 1915.81,781.333 1915.7,778.38 1915.57,775.428 1915.43,772.477 1915.27,769.527 1915.1,766.577 1914.92,763.628 1914.72,760.68 1914.51,757.733 1914.29,754.787 1914.05,751.842 1913.8,748.898 1913.53,745.955 1913.26,743.014 1912.96,740.074 1912.66,737.135 1912.34,734.197 1912.01,731.261 1911.66,728.327 1911.3,725.394 1910.93,722.463 1910.55,719.534 1910.15,716.607 1909.73,713.681 1909.31,710.757 1908.87,707.836 1908.41,704.916 1907.95,701.998 1907.47,699.083 1906.97,696.17 1906.47,693.259 1905.95,690.351 1905.41,687.445 1904.87,684.541 1904.31,681.64 1903.73,678.742 1903.15,675.846 1902.55,672.953 1901.93,670.063 1901.31,667.175 1900.67,664.291 1900.02,661.409 1273.33,804.964 "></polyline>
<path clip-path="url(#clip322)" d="M1273.33 804.964 L1900.02 661.409 L1895.44 642.725 L1890.31 624.185 L1884.62 605.808 L1878.39 587.609 L1871.62 569.604 L1864.31 551.81 L1856.47 534.243 L1848.11 516.918 L1839.23 499.851 L1829.85 483.058 L1819.97 466.552 L1809.6 450.349 L1798.76 434.464 L1787.44 418.911 L1775.66 403.703 L1763.43 388.854 L1750.76 374.378 L1737.66 360.287 L1724.15 346.595 L1710.24 333.312 L1695.93 320.452 L1681.25 308.026 L1666.2 296.045 L1650.79 284.519 L1635.06 273.459 L1618.99 262.875 L1602.62 252.777 L1585.95 243.172 L1569 234.071 L1551.79 225.481 L1534.33 217.409 L1516.64 209.864 L1498.72 202.851 L1480.61 196.377 L1462.31 190.448 L1443.84 185.07 L1425.22 180.246 L1406.46 175.982 L1387.58 172.28 L1368.6 169.145 L1349.54 166.579 L1330.41 164.585 L1311.22 163.164 L1292 162.318 L1272.77 162.047 L1253.54 162.351 L1234.32 163.231 L1215.14 164.686 L1196.01 166.713 L1273.33 804.964  Z" fill="#e26f46" fill-rule="evenodd" fill-opacity="1"></path>
<polyline clip-path="url(#clip322)" style="stroke:#000000; stroke-linecap:round; stroke-linejoin:round; stroke-width:4; stroke-opacity:1; fill:none" points="1273.33,804.964 1900.02,661.409 1895.44,642.725 1890.31,624.185 1884.62,605.808 1878.39,587.609 1871.62,569.604 1864.31,551.81 1856.47,534.243 1848.11,516.918 1839.23,499.851 1829.85,483.058 1819.97,466.552 1809.6,450.349 1798.76,434.464 1787.44,418.911 1775.66,403.703 1763.43,388.854 1750.76,374.378 1737.66,360.287 1724.15,346.595 1710.24,333.312 1695.93,320.452 1681.25,308.026 1666.2,296.045 1650.79,284.519 1635.06,273.459 1618.99,262.875 1602.62,252.777 1585.95,243.172 1569,234.071 1551.79,225.481 1534.33,217.409 1516.64,209.864 1498.72,202.851 1480.61,196.377 1462.31,190.448 1443.84,185.07 1425.22,180.246 1406.46,175.982 1387.58,172.28 1368.6,169.145 1349.54,166.579 1330.41,164.585 1311.22,163.164 1292,162.318 1272.77,162.047 1253.54,162.351 1234.32,163.231 1215.14,164.686 1196.01,166.713 1273.33,804.964 "></polyline>
<path clip-path="url(#clip322)" d="M1273.33 804.964 L1196.01 166.713 L1181.18 168.685 L1166.39 171.002 L1151.67 173.662 L1137.01 176.665 L1122.43 180.007 L1107.93 183.688 L1093.51 187.705 L1079.2 192.057 L1064.99 196.74 L1050.89 201.754 L1036.91 207.093 L1023.06 212.757 L1009.35 218.741 L995.779 225.043 L982.359 231.659 L969.096 238.585 L955.998 245.819 L943.072 253.355 L930.325 261.19 L917.764 269.319 L905.395 277.738 L893.226 286.443 L881.262 295.429 L869.511 304.691 L857.978 314.224 L846.671 324.022 L835.594 334.081 L824.755 344.395 L814.159 354.959 L803.811 365.766 L793.717 376.811 L783.884 388.088 L774.315 399.591 L765.017 411.313 L755.994 423.249 L747.251 435.391 L738.793 447.734 L730.625 460.27 L722.75 472.992 L715.174 485.895 L707.9 498.97 L700.933 512.211 L694.275 525.61 L687.931 539.161 L681.904 552.856 L676.197 566.687 L670.814 580.648 L665.757 594.73 L661.029 608.925 L1273.33 804.964  Z" fill="#3da44d" fill-rule="evenodd" fill-opacity="1"></path>
<polyline clip-path="url(#clip322)" style="stroke:#000000; stroke-linecap:round; stroke-linejoin:round; stroke-width:4; stroke-opacity:1; fill:none" points="1273.33,804.964 1196.01,166.713 1181.18,168.685 1166.39,171.002 1151.67,173.662 1137.01,176.665 1122.43,180.007 1107.93,183.688 1093.51,187.705 1079.2,192.057 1064.99,196.74 1050.89,201.754 1036.91,207.093 1023.06,212.757 1009.35,218.741 995.779,225.043 982.359,231.659 969.096,238.585 955.998,245.819 943.072,253.355 930.325,261.19 917.764,269.319 905.395,277.738 893.226,286.443 881.262,295.429 869.511,304.691 857.978,314.224 846.671,324.022 835.594,334.081 824.755,344.395 814.159,354.959 803.811,365.766 793.717,376.811 783.884,388.088 774.315,399.591 765.017,411.313 755.994,423.249 747.251,435.391 738.793,447.734 730.625,460.27 722.75,472.992 715.174,485.895 707.9,498.97 700.933,512.211 694.275,525.61 687.931,539.161 681.904,552.856 676.197,566.687 670.814,580.648 665.757,594.73 661.029,608.925 1273.33,804.964 "></polyline>
<path clip-path="url(#clip322)" d="M1273.33 804.964 L661.029 608.925 L660.568 610.372 L660.11 611.82 L659.656 613.269 L659.204 614.719 L658.757 616.17 L658.313 617.622 L657.872 619.076 L657.434 620.53 L657.001 621.985 L656.57 623.441 L656.143 624.899 L655.719 626.357 L655.299 627.816 L654.883 629.277 L654.469 630.738 L654.06 632.2 L653.653 633.663 L653.25 635.128 L652.851 636.593 L652.455 638.059 L652.062 639.526 L651.673 640.994 L651.288 642.462 L650.906 643.932 L650.527 645.403 L650.152 646.874 L649.78 648.347 L649.412 649.82 L649.047 651.294 L648.686 652.769 L648.328 654.245 L647.974 655.722 L647.623 657.199 L647.276 658.677 L646.932 660.157 L646.592 661.637 L646.255 663.117 L645.922 664.599 L645.592 666.081 L645.266 667.564 L644.943 669.048 L644.624 670.533 L644.308 672.018 L643.996 673.504 L643.687 674.991 L643.382 676.479 L643.08 677.967 L642.782 679.456 L642.487 680.946 L1273.33 804.964  Z" fill="#c271d2" fill-rule="evenodd" fill-opacity="1"></path>
<polyline clip-path="url(#clip322)" style="stroke:#000000; stroke-linecap:round; stroke-linejoin:round; stroke-width:4; stroke-opacity:1; fill:none" points="1273.33,804.964 661.029,608.925 660.568,610.372 660.11,611.82 659.656,613.269 659.204,614.719 658.757,616.17 658.313,617.622 657.872,619.076 657.434,620.53 657.001,621.985 656.57,623.441 656.143,624.899 655.719,626.357 655.299,627.816 654.883,629.277 654.469,630.738 654.06,632.2 653.653,633.663 653.25,635.128 652.851,636.593 652.455,638.059 652.062,639.526 651.673,640.994 651.288,642.462 650.906,643.932 650.527,645.403 650.152,646.874 649.78,648.347 649.412,649.82 649.047,651.294 648.686,652.769 648.328,654.245 647.974,655.722 647.623,657.199 647.276,658.677 646.932,660.157 646.592,661.637 646.255,663.117 645.922,664.599 645.592,666.081 645.266,667.564 644.943,669.048 644.624,670.533 644.308,672.018 643.996,673.504 643.687,674.991 643.382,676.479 643.08,677.967 642.782,679.456 642.487,680.946 1273.33,804.964 "></polyline>
<path clip-path="url(#clip322)" d="M1273.33 804.964 L642.487 680.946 L635.512 724.145 L631.492 767.719 L630.445 811.465 L632.376 855.181 L637.277 898.664 L645.124 941.713 L655.881 984.129 L669.499 1025.71 L685.913 1066.28 L705.049 1105.63 L726.818 1143.59 L751.118 1179.98 L777.838 1214.64 L806.852 1247.39 L838.028 1278.1 L871.22 1306.61 L906.275 1332.8 L943.031 1356.55 L981.316 1377.74 L1020.95 1396.28 L1061.76 1412.07 L1103.55 1425.06 L1146.12 1435.17 L1189.29 1442.36 L1232.84 1446.61 L1276.58 1447.87 L1320.31 1446.16 L1363.81 1441.48 L1406.9 1433.85 L1449.37 1423.31 L1491.02 1409.9 L1531.67 1393.69 L1571.12 1374.76 L1609.19 1353.18 L1645.7 1329.06 L1680.49 1302.52 L1713.39 1273.67 L1744.26 1242.65 L1772.94 1209.6 L1799.31 1174.68 L1823.24 1138.05 L1844.62 1099.87 L1863.36 1060.32 L1879.36 1019.6 L1892.56 977.877 L1902.89 935.354 L1910.3 892.228 L1914.76 848.697 L1916.25 804.964 L1273.33 804.964  Z" fill="#ac8d18" fill-rule="evenodd" fill-opacity="1"></path>
<polyline clip-path="url(#clip322)" style="stroke:#000000; stroke-linecap:round; stroke-linejoin:round; stroke-width:4; stroke-opacity:1; fill:none" points="1273.33,804.964 642.487,680.946 635.512,724.145 631.492,767.719 630.445,811.465 632.376,855.181 637.277,898.664 645.124,941.713 655.881,984.129 669.499,1025.71 685.913,1066.28 705.049,1105.63 726.818,1143.59 751.118,1179.98 777.838,1214.64 806.852,1247.39 838.028,1278.1 871.22,1306.61 906.275,1332.8 943.031,1356.55 981.316,1377.74 1020.95,1396.28 1061.76,1412.07 1103.55,1425.06 1146.12,1435.17 1189.29,1442.36 1232.84,1446.61 1276.58,1447.87 1320.31,1446.16 1363.81,1441.48 1406.9,1433.85 1449.37,1423.31 1491.02,1409.9 1531.67,1393.69 1571.12,1374.76 1609.19,1353.18 1645.7,1329.06 1680.49,1302.52 1713.39,1273.67 1744.26,1242.65 1772.94,1209.6 1799.31,1174.68 1823.24,1138.05 1844.62,1099.87 1863.36,1060.32 1879.36,1019.6 1892.56,977.877 1902.89,935.354 1910.3,892.228 1914.76,848.697 1916.25,804.964 1273.33,804.964 "></polyline>
<path clip-path="url(#clip320)" d="M23.6291 587.118 L592.981 587.118 L592.981 276.078 L23.6291 276.078  Z" fill="#ffffff" fill-rule="evenodd" fill-opacity="1"></path>
<polyline clip-path="url(#clip320)" style="stroke:#000000; stroke-linecap:round; stroke-linejoin:round; stroke-width:4; stroke-opacity:1; fill:none" points="23.6291,587.118 592.981,587.118 592.981,276.078 23.6291,276.078 23.6291,587.118 "></polyline>
<path clip-path="url(#clip320)" d="M47.616 348.654 L191.537 348.654 L191.537 307.182 L47.616 307.182 L47.616 348.654  Z" fill="#009af9" fill-rule="evenodd" fill-opacity="1"></path>
<polyline clip-path="url(#clip320)" style="stroke:#000000; stroke-linecap:round; stroke-linejoin:round; stroke-width:4; stroke-opacity:1; fill:none" points="47.616,348.654 191.537,348.654 191.537,307.182 47.616,307.182 47.616,348.654 "></polyline>
<path clip-path="url(#clip320)" d="M231.357 315.245 L225.015 332.444 L237.723 332.444 L231.357 315.245 M228.719 310.638 L234.019 310.638 L247.191 345.198 L242.33 345.198 L239.181 336.333 L223.603 336.333 L220.455 345.198 L215.524 345.198 L228.719 310.638 Z" fill="#000000" fill-rule="nonzero" fill-opacity="1"></path><path clip-path="url(#clip320)" d="M268.579 320.037 L268.579 324.064 Q266.774 323.138 264.829 322.675 Q262.885 322.213 260.802 322.213 Q257.63 322.213 256.033 323.185 Q254.459 324.157 254.459 326.101 Q254.459 327.583 255.593 328.439 Q256.728 329.273 260.154 330.037 L261.612 330.361 Q266.149 331.333 268.047 333.115 Q269.968 334.874 269.968 338.046 Q269.968 341.657 267.098 343.763 Q264.251 345.87 259.251 345.87 Q257.167 345.87 254.899 345.453 Q252.654 345.06 250.154 344.249 L250.154 339.851 Q252.515 341.078 254.806 341.703 Q257.098 342.305 259.343 342.305 Q262.353 342.305 263.973 341.286 Q265.593 340.245 265.593 338.37 Q265.593 336.634 264.413 335.708 Q263.255 334.782 259.297 333.925 L257.816 333.578 Q253.857 332.745 252.098 331.032 Q250.339 329.296 250.339 326.287 Q250.339 322.629 252.931 320.638 Q255.524 318.648 260.292 318.648 Q262.654 318.648 264.737 318.995 Q266.82 319.342 268.579 320.037 Z" fill="#000000" fill-rule="nonzero" fill-opacity="1"></path><path clip-path="url(#clip320)" d="M293.278 320.037 L293.278 324.064 Q291.473 323.138 289.528 322.675 Q287.584 322.213 285.501 322.213 Q282.329 322.213 280.732 323.185 Q279.158 324.157 279.158 326.101 Q279.158 327.583 280.292 328.439 Q281.427 329.273 284.853 330.037 L286.311 330.361 Q290.848 331.333 292.746 333.115 Q294.667 334.874 294.667 338.046 Q294.667 341.657 291.797 343.763 Q288.95 345.87 283.95 345.87 Q281.866 345.87 279.598 345.453 Q277.353 345.06 274.853 344.249 L274.853 339.851 Q277.214 341.078 279.505 341.703 Q281.797 342.305 284.042 342.305 Q287.052 342.305 288.672 341.286 Q290.292 340.245 290.292 338.37 Q290.292 336.634 289.112 335.708 Q287.954 334.782 283.996 333.925 L282.515 333.578 Q278.556 332.745 276.797 331.032 Q275.038 329.296 275.038 326.287 Q275.038 322.629 277.63 320.638 Q280.223 318.648 284.991 318.648 Q287.353 318.648 289.436 318.995 Q291.519 319.342 293.278 320.037 Z" fill="#000000" fill-rule="nonzero" fill-opacity="1"></path><path clip-path="url(#clip320)" d="M323.625 331.171 L323.625 333.254 L304.042 333.254 Q304.32 337.652 306.681 339.967 Q309.065 342.259 313.301 342.259 Q315.755 342.259 318.047 341.657 Q320.362 341.055 322.63 339.851 L322.63 343.879 Q320.338 344.851 317.931 345.361 Q315.524 345.87 313.047 345.87 Q306.843 345.87 303.209 342.259 Q299.598 338.648 299.598 332.49 Q299.598 326.125 303.024 322.398 Q306.473 318.648 312.306 318.648 Q317.538 318.648 320.57 322.027 Q323.625 325.384 323.625 331.171 M319.366 329.921 Q319.32 326.425 317.399 324.342 Q315.501 322.259 312.352 322.259 Q308.788 322.259 306.635 324.273 Q304.505 326.287 304.181 329.944 L319.366 329.921 Z" fill="#000000" fill-rule="nonzero" fill-opacity="1"></path><path clip-path="url(#clip320)" d="M334.829 311.912 L334.829 319.273 L343.602 319.273 L343.602 322.583 L334.829 322.583 L334.829 336.657 Q334.829 339.828 335.686 340.731 Q336.565 341.634 339.227 341.634 L343.602 341.634 L343.602 345.198 L339.227 345.198 Q334.297 345.198 332.422 343.37 Q330.547 341.518 330.547 336.657 L330.547 322.583 L327.422 322.583 L327.422 319.273 L330.547 319.273 L330.547 311.912 L334.829 311.912 Z" fill="#000000" fill-rule="nonzero" fill-opacity="1"></path><path clip-path="url(#clip320)" d="M365.685 341.263 L373.324 341.263 L373.324 314.898 L365.014 316.564 L365.014 312.305 L373.278 310.638 L377.954 310.638 L377.954 341.263 L385.593 341.263 L385.593 345.198 L365.685 345.198 L365.685 341.263 Z" fill="#000000" fill-rule="nonzero" fill-opacity="1"></path><path clip-path="url(#clip320)" d="M395.523 339.319 L400.407 339.319 L400.407 345.198 L395.523 345.198 L395.523 339.319 M395.523 320.685 L400.407 320.685 L400.407 326.564 L395.523 326.564 L395.523 320.685 Z" fill="#000000" fill-rule="nonzero" fill-opacity="1"></path><path clip-path="url(#clip320)" d="M440.245 326.564 Q443.602 327.282 445.477 329.55 Q447.375 331.819 447.375 335.152 Q447.375 340.268 443.856 343.069 Q440.338 345.87 433.856 345.87 Q431.68 345.87 429.366 345.43 Q427.074 345.013 424.62 344.157 L424.62 339.643 Q426.565 340.777 428.88 341.356 Q431.194 341.935 433.717 341.935 Q438.116 341.935 440.407 340.199 Q442.722 338.462 442.722 335.152 Q442.722 332.097 440.569 330.384 Q438.44 328.648 434.62 328.648 L430.592 328.648 L430.592 324.805 L434.805 324.805 Q438.254 324.805 440.083 323.439 Q441.912 322.05 441.912 319.458 Q441.912 316.796 440.014 315.384 Q438.139 313.949 434.62 313.949 Q432.699 313.949 430.5 314.365 Q428.301 314.782 425.662 315.662 L425.662 311.495 Q428.324 310.754 430.639 310.384 Q432.977 310.013 435.037 310.013 Q440.361 310.013 443.463 312.444 Q446.565 314.851 446.565 318.972 Q446.565 321.842 444.921 323.833 Q443.278 325.8 440.245 326.564 Z" fill="#000000" fill-rule="nonzero" fill-opacity="1"></path><path clip-path="url(#clip320)" d="M456.24 339.319 L461.125 339.319 L461.125 345.198 L456.24 345.198 L456.24 339.319 Z" fill="#000000" fill-rule="nonzero" fill-opacity="1"></path><path clip-path="url(#clip320)" d="M481.889 326.055 Q478.74 326.055 476.889 328.208 Q475.06 330.361 475.06 334.111 Q475.06 337.837 476.889 340.013 Q478.74 342.166 481.889 342.166 Q485.037 342.166 486.865 340.013 Q488.717 337.837 488.717 334.111 Q488.717 330.361 486.865 328.208 Q485.037 326.055 481.889 326.055 M491.171 311.402 L491.171 315.662 Q489.412 314.828 487.606 314.388 Q485.824 313.949 484.064 313.949 Q479.435 313.949 476.981 317.074 Q474.551 320.199 474.203 326.518 Q475.569 324.504 477.629 323.439 Q479.689 322.351 482.166 322.351 Q487.375 322.351 490.384 325.523 Q493.416 328.671 493.416 334.111 Q493.416 339.435 490.268 342.652 Q487.12 345.87 481.889 345.87 Q475.893 345.87 472.722 341.286 Q469.551 336.68 469.551 327.953 Q469.551 319.759 473.439 314.898 Q477.328 310.013 483.879 310.013 Q485.638 310.013 487.421 310.361 Q489.226 310.708 491.171 311.402 Z" fill="#000000" fill-rule="nonzero" fill-opacity="1"></path><path clip-path="url(#clip320)" d="M530.87 329.99 Q528.856 329.99 527.698 331.703 Q526.564 333.416 526.564 336.472 Q526.564 339.481 527.698 341.217 Q528.856 342.93 530.87 342.93 Q532.837 342.93 533.972 341.217 Q535.129 339.481 535.129 336.472 Q535.129 333.439 533.972 331.726 Q532.837 329.99 530.87 329.99 M530.87 327.05 Q534.527 327.05 536.68 329.597 Q538.833 332.143 538.833 336.472 Q538.833 340.8 536.657 343.347 Q534.504 345.87 530.87 345.87 Q527.166 345.87 525.013 343.347 Q522.861 340.8 522.861 336.472 Q522.861 332.12 525.013 329.597 Q527.189 327.05 530.87 327.05 M506.981 312.953 Q504.99 312.953 503.833 314.689 Q502.699 316.402 502.699 319.412 Q502.699 322.467 503.833 324.18 Q504.967 325.893 506.981 325.893 Q508.995 325.893 510.129 324.18 Q511.287 322.467 511.287 319.412 Q511.287 316.425 510.129 314.689 Q508.972 312.953 506.981 312.953 M527.884 310.013 L531.587 310.013 L509.967 345.87 L506.263 345.87 L527.884 310.013 M506.981 310.013 Q510.638 310.013 512.814 312.56 Q514.99 315.083 514.99 319.412 Q514.99 323.787 512.814 326.31 Q510.662 328.833 506.981 328.833 Q503.3 328.833 501.148 326.31 Q499.018 323.763 499.018 319.412 Q499.018 315.106 501.171 312.56 Q503.324 310.013 506.981 310.013 Z" fill="#000000" fill-rule="nonzero" fill-opacity="1"></path><path clip-path="url(#clip320)" d="M47.616 400.494 L191.537 400.494 L191.537 359.022 L47.616 359.022 L47.616 400.494  Z" fill="#e26f46" fill-rule="evenodd" fill-opacity="1"></path>
<polyline clip-path="url(#clip320)" style="stroke:#000000; stroke-linecap:round; stroke-linejoin:round; stroke-width:4; stroke-opacity:1; fill:none" points="47.616,400.494 191.537,400.494 191.537,359.022 47.616,359.022 47.616,400.494 "></polyline>
<path clip-path="url(#clip320)" d="M231.357 367.085 L225.015 384.284 L237.723 384.284 L231.357 367.085 M228.719 362.478 L234.019 362.478 L247.191 397.038 L242.33 397.038 L239.181 388.173 L223.603 388.173 L220.455 397.038 L215.524 397.038 L228.719 362.478 Z" fill="#000000" fill-rule="nonzero" fill-opacity="1"></path><path clip-path="url(#clip320)" d="M268.579 371.877 L268.579 375.904 Q266.774 374.978 264.829 374.515 Q262.885 374.053 260.802 374.053 Q257.63 374.053 256.033 375.025 Q254.459 375.997 254.459 377.941 Q254.459 379.423 255.593 380.279 Q256.728 381.113 260.154 381.877 L261.612 382.201 Q266.149 383.173 268.047 384.955 Q269.968 386.714 269.968 389.886 Q269.968 393.497 267.098 395.603 Q264.251 397.71 259.251 397.71 Q257.167 397.71 254.899 397.293 Q252.654 396.9 250.154 396.089 L250.154 391.691 Q252.515 392.918 254.806 393.543 Q257.098 394.145 259.343 394.145 Q262.353 394.145 263.973 393.126 Q265.593 392.085 265.593 390.21 Q265.593 388.474 264.413 387.548 Q263.255 386.622 259.297 385.765 L257.816 385.418 Q253.857 384.585 252.098 382.872 Q250.339 381.136 250.339 378.127 Q250.339 374.469 252.931 372.478 Q255.524 370.488 260.292 370.488 Q262.654 370.488 264.737 370.835 Q266.82 371.182 268.579 371.877 Z" fill="#000000" fill-rule="nonzero" fill-opacity="1"></path><path clip-path="url(#clip320)" d="M293.278 371.877 L293.278 375.904 Q291.473 374.978 289.528 374.515 Q287.584 374.053 285.501 374.053 Q282.329 374.053 280.732 375.025 Q279.158 375.997 279.158 377.941 Q279.158 379.423 280.292 380.279 Q281.427 381.113 284.853 381.877 L286.311 382.201 Q290.848 383.173 292.746 384.955 Q294.667 386.714 294.667 389.886 Q294.667 393.497 291.797 395.603 Q288.95 397.71 283.95 397.71 Q281.866 397.71 279.598 397.293 Q277.353 396.9 274.853 396.089 L274.853 391.691 Q277.214 392.918 279.505 393.543 Q281.797 394.145 284.042 394.145 Q287.052 394.145 288.672 393.126 Q290.292 392.085 290.292 390.21 Q290.292 388.474 289.112 387.548 Q287.954 386.622 283.996 385.765 L282.515 385.418 Q278.556 384.585 276.797 382.872 Q275.038 381.136 275.038 378.127 Q275.038 374.469 277.63 372.478 Q280.223 370.488 284.991 370.488 Q287.353 370.488 289.436 370.835 Q291.519 371.182 293.278 371.877 Z" fill="#000000" fill-rule="nonzero" fill-opacity="1"></path><path clip-path="url(#clip320)" d="M323.625 383.011 L323.625 385.094 L304.042 385.094 Q304.32 389.492 306.681 391.807 Q309.065 394.099 313.301 394.099 Q315.755 394.099 318.047 393.497 Q320.362 392.895 322.63 391.691 L322.63 395.719 Q320.338 396.691 317.931 397.201 Q315.524 397.71 313.047 397.71 Q306.843 397.71 303.209 394.099 Q299.598 390.488 299.598 384.33 Q299.598 377.965 303.024 374.238 Q306.473 370.488 312.306 370.488 Q317.538 370.488 320.57 373.867 Q323.625 377.224 323.625 383.011 M319.366 381.761 Q319.32 378.265 317.399 376.182 Q315.501 374.099 312.352 374.099 Q308.788 374.099 306.635 376.113 Q304.505 378.127 304.181 381.784 L319.366 381.761 Z" fill="#000000" fill-rule="nonzero" fill-opacity="1"></path><path clip-path="url(#clip320)" d="M334.829 363.752 L334.829 371.113 L343.602 371.113 L343.602 374.423 L334.829 374.423 L334.829 388.497 Q334.829 391.668 335.686 392.571 Q336.565 393.474 339.227 393.474 L343.602 393.474 L343.602 397.038 L339.227 397.038 Q334.297 397.038 332.422 395.21 Q330.547 393.358 330.547 388.497 L330.547 374.423 L327.422 374.423 L327.422 371.113 L330.547 371.113 L330.547 363.752 L334.829 363.752 Z" fill="#000000" fill-rule="nonzero" fill-opacity="1"></path><path clip-path="url(#clip320)" d="M368.903 393.103 L385.222 393.103 L385.222 397.038 L363.278 397.038 L363.278 393.103 Q365.94 390.349 370.523 385.719 Q375.13 381.066 376.31 379.724 Q378.556 377.201 379.435 375.465 Q380.338 373.705 380.338 372.015 Q380.338 369.261 378.394 367.525 Q376.472 365.789 373.371 365.789 Q371.172 365.789 368.718 366.553 Q366.287 367.316 363.51 368.867 L363.51 364.145 Q366.334 363.011 368.787 362.432 Q371.241 361.853 373.278 361.853 Q378.648 361.853 381.843 364.539 Q385.037 367.224 385.037 371.715 Q385.037 373.844 384.227 375.765 Q383.44 377.664 381.333 380.256 Q380.755 380.927 377.653 384.145 Q374.551 387.339 368.903 393.103 Z" fill="#000000" fill-rule="nonzero" fill-opacity="1"></path><path clip-path="url(#clip320)" d="M395.523 391.159 L400.407 391.159 L400.407 397.038 L395.523 397.038 L395.523 391.159 M395.523 372.525 L400.407 372.525 L400.407 378.404 L395.523 378.404 L395.523 372.525 Z" fill="#000000" fill-rule="nonzero" fill-opacity="1"></path><path clip-path="url(#clip320)" d="M430.106 393.103 L446.426 393.103 L446.426 397.038 L424.481 397.038 L424.481 393.103 Q427.143 390.349 431.727 385.719 Q436.333 381.066 437.514 379.724 Q439.759 377.201 440.639 375.465 Q441.542 373.705 441.542 372.015 Q441.542 369.261 439.597 367.525 Q437.676 365.789 434.574 365.789 Q432.375 365.789 429.921 366.553 Q427.491 367.316 424.713 368.867 L424.713 364.145 Q427.537 363.011 429.991 362.432 Q432.444 361.853 434.481 361.853 Q439.852 361.853 443.046 364.539 Q446.241 367.224 446.241 371.715 Q446.241 373.844 445.43 375.765 Q444.643 377.664 442.537 380.256 Q441.958 380.927 438.856 384.145 Q435.754 387.339 430.106 393.103 Z" fill="#000000" fill-rule="nonzero" fill-opacity="1"></path><path clip-path="url(#clip320)" d="M470.407 378.404 Q473.764 379.122 475.639 381.39 Q477.537 383.659 477.537 386.992 Q477.537 392.108 474.018 394.909 Q470.5 397.71 464.018 397.71 Q461.842 397.71 459.528 397.27 Q457.236 396.853 454.782 395.997 L454.782 391.483 Q456.727 392.617 459.041 393.196 Q461.356 393.775 463.879 393.775 Q468.277 393.775 470.569 392.039 Q472.884 390.302 472.884 386.992 Q472.884 383.937 470.731 382.224 Q468.602 380.488 464.782 380.488 L460.754 380.488 L460.754 376.645 L464.967 376.645 Q468.416 376.645 470.245 375.279 Q472.074 373.89 472.074 371.298 Q472.074 368.636 470.176 367.224 Q468.301 365.789 464.782 365.789 Q462.861 365.789 460.662 366.205 Q458.463 366.622 455.824 367.502 L455.824 363.335 Q458.486 362.594 460.801 362.224 Q463.139 361.853 465.199 361.853 Q470.523 361.853 473.625 364.284 Q476.727 366.691 476.727 370.812 Q476.727 373.682 475.083 375.673 Q473.439 377.64 470.407 378.404 Z" fill="#000000" fill-rule="nonzero" fill-opacity="1"></path><path clip-path="url(#clip320)" d="M486.402 391.159 L491.287 391.159 L491.287 397.038 L486.402 397.038 L486.402 391.159 Z" fill="#000000" fill-rule="nonzero" fill-opacity="1"></path><path clip-path="url(#clip320)" d="M515.638 378.404 Q518.995 379.122 520.87 381.39 Q522.768 383.659 522.768 386.992 Q522.768 392.108 519.249 394.909 Q515.731 397.71 509.249 397.71 Q507.074 397.71 504.759 397.27 Q502.467 396.853 500.013 395.997 L500.013 391.483 Q501.958 392.617 504.273 393.196 Q506.587 393.775 509.111 393.775 Q513.509 393.775 515.8 392.039 Q518.115 390.302 518.115 386.992 Q518.115 383.937 515.962 382.224 Q513.833 380.488 510.013 380.488 L505.986 380.488 L505.986 376.645 L510.199 376.645 Q513.648 376.645 515.476 375.279 Q517.305 373.89 517.305 371.298 Q517.305 368.636 515.407 367.224 Q513.532 365.789 510.013 365.789 Q508.092 365.789 505.893 366.205 Q503.694 366.622 501.055 367.502 L501.055 363.335 Q503.717 362.594 506.032 362.224 Q508.37 361.853 510.43 361.853 Q515.754 361.853 518.856 364.284 Q521.958 366.691 521.958 370.812 Q521.958 373.682 520.314 375.673 Q518.671 377.64 515.638 378.404 Z" fill="#000000" fill-rule="nonzero" fill-opacity="1"></path><path clip-path="url(#clip320)" d="M561.032 381.83 Q559.018 381.83 557.86 383.543 Q556.726 385.256 556.726 388.312 Q556.726 391.321 557.86 393.057 Q559.018 394.77 561.032 394.77 Q562.999 394.77 564.133 393.057 Q565.291 391.321 565.291 388.312 Q565.291 385.279 564.133 383.566 Q562.999 381.83 561.032 381.83 M561.032 378.89 Q564.689 378.89 566.842 381.437 Q568.995 383.983 568.995 388.312 Q568.995 392.64 566.819 395.187 Q564.666 397.71 561.032 397.71 Q557.328 397.71 555.175 395.187 Q553.022 392.64 553.022 388.312 Q553.022 383.96 555.175 381.437 Q557.351 378.89 561.032 378.89 M537.143 364.793 Q535.152 364.793 533.995 366.529 Q532.86 368.242 532.86 371.252 Q532.86 374.307 533.995 376.02 Q535.129 377.733 537.143 377.733 Q539.157 377.733 540.291 376.02 Q541.448 374.307 541.448 371.252 Q541.448 368.265 540.291 366.529 Q539.134 364.793 537.143 364.793 M558.046 361.853 L561.749 361.853 L540.129 397.71 L536.425 397.71 L558.046 361.853 M537.143 361.853 Q540.8 361.853 542.976 364.4 Q545.152 366.923 545.152 371.252 Q545.152 375.627 542.976 378.15 Q540.823 380.673 537.143 380.673 Q533.462 380.673 531.31 378.15 Q529.18 375.603 529.18 371.252 Q529.18 366.946 531.333 364.4 Q533.485 361.853 537.143 361.853 Z" fill="#000000" fill-rule="nonzero" fill-opacity="1"></path><path clip-path="url(#clip320)" d="M47.616 452.334 L191.537 452.334 L191.537 410.862 L47.616 410.862 L47.616 452.334  Z" fill="#3da44d" fill-rule="evenodd" fill-opacity="1"></path>
<polyline clip-path="url(#clip320)" style="stroke:#000000; stroke-linecap:round; stroke-linejoin:round; stroke-width:4; stroke-opacity:1; fill:none" points="47.616,452.334 191.537,452.334 191.537,410.862 47.616,410.862 47.616,452.334 "></polyline>
<path clip-path="url(#clip320)" d="M231.357 418.925 L225.015 436.124 L237.723 436.124 L231.357 418.925 M228.719 414.318 L234.019 414.318 L247.191 448.878 L242.33 448.878 L239.181 440.013 L223.603 440.013 L220.455 448.878 L215.524 448.878 L228.719 414.318 Z" fill="#000000" fill-rule="nonzero" fill-opacity="1"></path><path clip-path="url(#clip320)" d="M268.579 423.717 L268.579 427.744 Q266.774 426.818 264.829 426.355 Q262.885 425.893 260.802 425.893 Q257.63 425.893 256.033 426.865 Q254.459 427.837 254.459 429.781 Q254.459 431.263 255.593 432.119 Q256.728 432.953 260.154 433.717 L261.612 434.041 Q266.149 435.013 268.047 436.795 Q269.968 438.554 269.968 441.726 Q269.968 445.337 267.098 447.443 Q264.251 449.55 259.251 449.55 Q257.167 449.55 254.899 449.133 Q252.654 448.74 250.154 447.929 L250.154 443.531 Q252.515 444.758 254.806 445.383 Q257.098 445.985 259.343 445.985 Q262.353 445.985 263.973 444.966 Q265.593 443.925 265.593 442.05 Q265.593 440.314 264.413 439.388 Q263.255 438.462 259.297 437.605 L257.816 437.258 Q253.857 436.425 252.098 434.712 Q250.339 432.976 250.339 429.967 Q250.339 426.309 252.931 424.318 Q255.524 422.328 260.292 422.328 Q262.654 422.328 264.737 422.675 Q266.82 423.022 268.579 423.717 Z" fill="#000000" fill-rule="nonzero" fill-opacity="1"></path><path clip-path="url(#clip320)" d="M293.278 423.717 L293.278 427.744 Q291.473 426.818 289.528 426.355 Q287.584 425.893 285.501 425.893 Q282.329 425.893 280.732 426.865 Q279.158 427.837 279.158 429.781 Q279.158 431.263 280.292 432.119 Q281.427 432.953 284.853 433.717 L286.311 434.041 Q290.848 435.013 292.746 436.795 Q294.667 438.554 294.667 441.726 Q294.667 445.337 291.797 447.443 Q288.95 449.55 283.95 449.55 Q281.866 449.55 279.598 449.133 Q277.353 448.74 274.853 447.929 L274.853 443.531 Q277.214 444.758 279.505 445.383 Q281.797 445.985 284.042 445.985 Q287.052 445.985 288.672 444.966 Q290.292 443.925 290.292 442.05 Q290.292 440.314 289.112 439.388 Q287.954 438.462 283.996 437.605 L282.515 437.258 Q278.556 436.425 276.797 434.712 Q275.038 432.976 275.038 429.967 Q275.038 426.309 277.63 424.318 Q280.223 422.328 284.991 422.328 Q287.353 422.328 289.436 422.675 Q291.519 423.022 293.278 423.717 Z" fill="#000000" fill-rule="nonzero" fill-opacity="1"></path><path clip-path="url(#clip320)" d="M323.625 434.851 L323.625 436.934 L304.042 436.934 Q304.32 441.332 306.681 443.647 Q309.065 445.939 313.301 445.939 Q315.755 445.939 318.047 445.337 Q320.362 444.735 322.63 443.531 L322.63 447.559 Q320.338 448.531 317.931 449.041 Q315.524 449.55 313.047 449.55 Q306.843 449.55 303.209 445.939 Q299.598 442.328 299.598 436.17 Q299.598 429.805 303.024 426.078 Q306.473 422.328 312.306 422.328 Q317.538 422.328 320.57 425.707 Q323.625 429.064 323.625 434.851 M319.366 433.601 Q319.32 430.105 317.399 428.022 Q315.501 425.939 312.352 425.939 Q308.788 425.939 306.635 427.953 Q304.505 429.967 304.181 433.624 L319.366 433.601 Z" fill="#000000" fill-rule="nonzero" fill-opacity="1"></path><path clip-path="url(#clip320)" d="M334.829 415.592 L334.829 422.953 L343.602 422.953 L343.602 426.263 L334.829 426.263 L334.829 440.337 Q334.829 443.508 335.686 444.411 Q336.565 445.314 339.227 445.314 L343.602 445.314 L343.602 448.878 L339.227 448.878 Q334.297 448.878 332.422 447.05 Q330.547 445.198 330.547 440.337 L330.547 426.263 L327.422 426.263 L327.422 422.953 L330.547 422.953 L330.547 415.592 L334.829 415.592 Z" fill="#000000" fill-rule="nonzero" fill-opacity="1"></path><path clip-path="url(#clip320)" d="M379.042 430.244 Q382.398 430.962 384.273 433.23 Q386.171 435.499 386.171 438.832 Q386.171 443.948 382.653 446.749 Q379.134 449.55 372.653 449.55 Q370.477 449.55 368.162 449.11 Q365.871 448.693 363.417 447.837 L363.417 443.323 Q365.361 444.457 367.676 445.036 Q369.991 445.615 372.514 445.615 Q376.912 445.615 379.204 443.879 Q381.519 442.142 381.519 438.832 Q381.519 435.777 379.366 434.064 Q377.236 432.328 373.417 432.328 L369.389 432.328 L369.389 428.485 L373.602 428.485 Q377.051 428.485 378.88 427.119 Q380.708 425.73 380.708 423.138 Q380.708 420.476 378.81 419.064 Q376.935 417.629 373.417 417.629 Q371.496 417.629 369.297 418.045 Q367.097 418.462 364.459 419.342 L364.459 415.175 Q367.121 414.434 369.435 414.064 Q371.773 413.693 373.834 413.693 Q379.158 413.693 382.259 416.124 Q385.361 418.531 385.361 422.652 Q385.361 425.522 383.718 427.513 Q382.074 429.48 379.042 430.244 Z" fill="#000000" fill-rule="nonzero" fill-opacity="1"></path><path clip-path="url(#clip320)" d="M395.523 442.999 L400.407 442.999 L400.407 448.878 L395.523 448.878 L395.523 442.999 M395.523 424.365 L400.407 424.365 L400.407 430.244 L395.523 430.244 L395.523 424.365 Z" fill="#000000" fill-rule="nonzero" fill-opacity="1"></path><path clip-path="url(#clip320)" d="M426.889 444.943 L434.528 444.943 L434.528 418.578 L426.218 420.244 L426.218 415.985 L434.481 414.318 L439.157 414.318 L439.157 444.943 L446.796 444.943 L446.796 448.878 L426.889 448.878 L426.889 444.943 Z" fill="#000000" fill-rule="nonzero" fill-opacity="1"></path><path clip-path="url(#clip320)" d="M466.24 432.467 Q462.907 432.467 460.986 434.249 Q459.088 436.031 459.088 439.156 Q459.088 442.281 460.986 444.064 Q462.907 445.846 466.24 445.846 Q469.574 445.846 471.495 444.064 Q473.416 442.258 473.416 439.156 Q473.416 436.031 471.495 434.249 Q469.597 432.467 466.24 432.467 M461.565 430.476 Q458.555 429.735 456.865 427.675 Q455.199 425.615 455.199 422.652 Q455.199 418.508 458.139 416.101 Q461.102 413.693 466.24 413.693 Q471.402 413.693 474.342 416.101 Q477.282 418.508 477.282 422.652 Q477.282 425.615 475.592 427.675 Q473.926 429.735 470.939 430.476 Q474.319 431.263 476.194 433.554 Q478.092 435.846 478.092 439.156 Q478.092 444.179 475.014 446.865 Q471.958 449.55 466.24 449.55 Q460.523 449.55 457.444 446.865 Q454.389 444.179 454.389 439.156 Q454.389 435.846 456.287 433.554 Q458.185 431.263 461.565 430.476 M459.852 423.092 Q459.852 425.777 461.518 427.281 Q463.208 428.786 466.24 428.786 Q469.25 428.786 470.939 427.281 Q472.652 425.777 472.652 423.092 Q472.652 420.406 470.939 418.902 Q469.25 417.397 466.24 417.397 Q463.208 417.397 461.518 418.902 Q459.852 420.406 459.852 423.092 Z" fill="#000000" fill-rule="nonzero" fill-opacity="1"></path><path clip-path="url(#clip320)" d="M486.402 442.999 L491.287 442.999 L491.287 448.878 L486.402 448.878 L486.402 442.999 Z" fill="#000000" fill-rule="nonzero" fill-opacity="1"></path><path clip-path="url(#clip320)" d="M502.282 444.943 L509.921 444.943 L509.921 418.578 L501.611 420.244 L501.611 415.985 L509.874 414.318 L514.55 414.318 L514.55 444.943 L522.189 444.943 L522.189 448.878 L502.282 448.878 L502.282 444.943 Z" fill="#000000" fill-rule="nonzero" fill-opacity="1"></path><path clip-path="url(#clip320)" d="M561.032 433.67 Q559.018 433.67 557.86 435.383 Q556.726 437.096 556.726 440.152 Q556.726 443.161 557.86 444.897 Q559.018 446.61 561.032 446.61 Q562.999 446.61 564.133 444.897 Q565.291 443.161 565.291 440.152 Q565.291 437.119 564.133 435.406 Q562.999 433.67 561.032 433.67 M561.032 430.73 Q564.689 430.73 566.842 433.277 Q568.995 435.823 568.995 440.152 Q568.995 444.48 566.819 447.027 Q564.666 449.55 561.032 449.55 Q557.328 449.55 555.175 447.027 Q553.022 444.48 553.022 440.152 Q553.022 435.8 555.175 433.277 Q557.351 430.73 561.032 430.73 M537.143 416.633 Q535.152 416.633 533.995 418.369 Q532.86 420.082 532.86 423.092 Q532.86 426.147 533.995 427.86 Q535.129 429.573 537.143 429.573 Q539.157 429.573 540.291 427.86 Q541.448 426.147 541.448 423.092 Q541.448 420.105 540.291 418.369 Q539.134 416.633 537.143 416.633 M558.046 413.693 L561.749 413.693 L540.129 449.55 L536.425 449.55 L558.046 413.693 M537.143 413.693 Q540.8 413.693 542.976 416.24 Q545.152 418.763 545.152 423.092 Q545.152 427.467 542.976 429.99 Q540.823 432.513 537.143 432.513 Q533.462 432.513 531.31 429.99 Q529.18 427.443 529.18 423.092 Q529.18 418.786 531.333 416.24 Q533.485 413.693 537.143 413.693 Z" fill="#000000" fill-rule="nonzero" fill-opacity="1"></path><path clip-path="url(#clip320)" d="M47.616 504.174 L191.537 504.174 L191.537 462.702 L47.616 462.702 L47.616 504.174  Z" fill="#c271d2" fill-rule="evenodd" fill-opacity="1"></path>
<polyline clip-path="url(#clip320)" style="stroke:#000000; stroke-linecap:round; stroke-linejoin:round; stroke-width:4; stroke-opacity:1; fill:none" points="47.616,504.174 191.537,504.174 191.537,462.702 47.616,462.702 47.616,504.174 "></polyline>
<path clip-path="url(#clip320)" d="M231.357 470.765 L225.015 487.964 L237.723 487.964 L231.357 470.765 M228.719 466.158 L234.019 466.158 L247.191 500.718 L242.33 500.718 L239.181 491.853 L223.603 491.853 L220.455 500.718 L215.524 500.718 L228.719 466.158 Z" fill="#000000" fill-rule="nonzero" fill-opacity="1"></path><path clip-path="url(#clip320)" d="M268.579 475.557 L268.579 479.584 Q266.774 478.658 264.829 478.195 Q262.885 477.733 260.802 477.733 Q257.63 477.733 256.033 478.705 Q254.459 479.677 254.459 481.621 Q254.459 483.103 255.593 483.959 Q256.728 484.793 260.154 485.557 L261.612 485.881 Q266.149 486.853 268.047 488.635 Q269.968 490.394 269.968 493.566 Q269.968 497.177 267.098 499.283 Q264.251 501.39 259.251 501.39 Q257.167 501.39 254.899 500.973 Q252.654 500.58 250.154 499.769 L250.154 495.371 Q252.515 496.598 254.806 497.223 Q257.098 497.825 259.343 497.825 Q262.353 497.825 263.973 496.806 Q265.593 495.765 265.593 493.89 Q265.593 492.154 264.413 491.228 Q263.255 490.302 259.297 489.445 L257.816 489.098 Q253.857 488.265 252.098 486.552 Q250.339 484.816 250.339 481.807 Q250.339 478.149 252.931 476.158 Q255.524 474.168 260.292 474.168 Q262.654 474.168 264.737 474.515 Q266.82 474.862 268.579 475.557 Z" fill="#000000" fill-rule="nonzero" fill-opacity="1"></path><path clip-path="url(#clip320)" d="M293.278 475.557 L293.278 479.584 Q291.473 478.658 289.528 478.195 Q287.584 477.733 285.501 477.733 Q282.329 477.733 280.732 478.705 Q279.158 479.677 279.158 481.621 Q279.158 483.103 280.292 483.959 Q281.427 484.793 284.853 485.557 L286.311 485.881 Q290.848 486.853 292.746 488.635 Q294.667 490.394 294.667 493.566 Q294.667 497.177 291.797 499.283 Q288.95 501.39 283.95 501.39 Q281.866 501.39 279.598 500.973 Q277.353 500.58 274.853 499.769 L274.853 495.371 Q277.214 496.598 279.505 497.223 Q281.797 497.825 284.042 497.825 Q287.052 497.825 288.672 496.806 Q290.292 495.765 290.292 493.89 Q290.292 492.154 289.112 491.228 Q287.954 490.302 283.996 489.445 L282.515 489.098 Q278.556 488.265 276.797 486.552 Q275.038 484.816 275.038 481.807 Q275.038 478.149 277.63 476.158 Q280.223 474.168 284.991 474.168 Q287.353 474.168 289.436 474.515 Q291.519 474.862 293.278 475.557 Z" fill="#000000" fill-rule="nonzero" fill-opacity="1"></path><path clip-path="url(#clip320)" d="M323.625 486.691 L323.625 488.774 L304.042 488.774 Q304.32 493.172 306.681 495.487 Q309.065 497.779 313.301 497.779 Q315.755 497.779 318.047 497.177 Q320.362 496.575 322.63 495.371 L322.63 499.399 Q320.338 500.371 317.931 500.881 Q315.524 501.39 313.047 501.39 Q306.843 501.39 303.209 497.779 Q299.598 494.168 299.598 488.01 Q299.598 481.645 303.024 477.918 Q306.473 474.168 312.306 474.168 Q317.538 474.168 320.57 477.547 Q323.625 480.904 323.625 486.691 M319.366 485.441 Q319.32 481.945 317.399 479.862 Q315.501 477.779 312.352 477.779 Q308.788 477.779 306.635 479.793 Q304.505 481.807 304.181 485.464 L319.366 485.441 Z" fill="#000000" fill-rule="nonzero" fill-opacity="1"></path><path clip-path="url(#clip320)" d="M334.829 467.432 L334.829 474.793 L343.602 474.793 L343.602 478.103 L334.829 478.103 L334.829 492.177 Q334.829 495.348 335.686 496.251 Q336.565 497.154 339.227 497.154 L343.602 497.154 L343.602 500.718 L339.227 500.718 Q334.297 500.718 332.422 498.89 Q330.547 497.038 330.547 492.177 L330.547 478.103 L327.422 478.103 L327.422 474.793 L330.547 474.793 L330.547 467.432 L334.829 467.432 Z" fill="#000000" fill-rule="nonzero" fill-opacity="1"></path><path clip-path="url(#clip320)" d="M377.722 470.233 L365.917 488.682 L377.722 488.682 L377.722 470.233 M376.496 466.158 L382.375 466.158 L382.375 488.682 L387.306 488.682 L387.306 492.57 L382.375 492.57 L382.375 500.718 L377.722 500.718 L377.722 492.57 L362.121 492.57 L362.121 488.057 L376.496 466.158 Z" fill="#000000" fill-rule="nonzero" fill-opacity="1"></path><path clip-path="url(#clip320)" d="M395.523 494.839 L400.407 494.839 L400.407 500.718 L395.523 500.718 L395.523 494.839 M395.523 476.205 L400.407 476.205 L400.407 482.084 L395.523 482.084 L395.523 476.205 Z" fill="#000000" fill-rule="nonzero" fill-opacity="1"></path><path clip-path="url(#clip320)" d="M426.889 496.783 L434.528 496.783 L434.528 470.418 L426.218 472.084 L426.218 467.825 L434.481 466.158 L439.157 466.158 L439.157 496.783 L446.796 496.783 L446.796 500.718 L426.889 500.718 L426.889 496.783 Z" fill="#000000" fill-rule="nonzero" fill-opacity="1"></path><path clip-path="url(#clip320)" d="M456.24 494.839 L461.125 494.839 L461.125 500.718 L456.24 500.718 L456.24 494.839 Z" fill="#000000" fill-rule="nonzero" fill-opacity="1"></path><path clip-path="url(#clip320)" d="M481.31 484.307 Q477.976 484.307 476.055 486.089 Q474.157 487.871 474.157 490.996 Q474.157 494.121 476.055 495.904 Q477.976 497.686 481.31 497.686 Q484.643 497.686 486.564 495.904 Q488.486 494.098 488.486 490.996 Q488.486 487.871 486.564 486.089 Q484.666 484.307 481.31 484.307 M476.634 482.316 Q473.625 481.575 471.935 479.515 Q470.268 477.455 470.268 474.492 Q470.268 470.348 473.208 467.941 Q476.171 465.533 481.31 465.533 Q486.472 465.533 489.412 467.941 Q492.351 470.348 492.351 474.492 Q492.351 477.455 490.662 479.515 Q488.995 481.575 486.009 482.316 Q489.388 483.103 491.263 485.394 Q493.162 487.686 493.162 490.996 Q493.162 496.019 490.083 498.705 Q487.027 501.39 481.31 501.39 Q475.592 501.39 472.514 498.705 Q469.458 496.019 469.458 490.996 Q469.458 487.686 471.356 485.394 Q473.254 483.103 476.634 482.316 M474.921 474.932 Q474.921 477.617 476.588 479.121 Q478.277 480.626 481.31 480.626 Q484.319 480.626 486.009 479.121 Q487.722 477.617 487.722 474.932 Q487.722 472.246 486.009 470.742 Q484.319 469.237 481.31 469.237 Q478.277 469.237 476.588 470.742 Q474.921 472.246 474.921 474.932 Z" fill="#000000" fill-rule="nonzero" fill-opacity="1"></path><path clip-path="url(#clip320)" d="M530.87 485.51 Q528.856 485.51 527.698 487.223 Q526.564 488.936 526.564 491.992 Q526.564 495.001 527.698 496.737 Q528.856 498.45 530.87 498.45 Q532.837 498.45 533.972 496.737 Q535.129 495.001 535.129 491.992 Q535.129 488.959 533.972 487.246 Q532.837 485.51 530.87 485.51 M530.87 482.57 Q534.527 482.57 536.68 485.117 Q538.833 487.663 538.833 491.992 Q538.833 496.32 536.657 498.867 Q534.504 501.39 530.87 501.39 Q527.166 501.39 525.013 498.867 Q522.861 496.32 522.861 491.992 Q522.861 487.64 525.013 485.117 Q527.189 482.57 530.87 482.57 M506.981 468.473 Q504.99 468.473 503.833 470.209 Q502.699 471.922 502.699 474.932 Q502.699 477.987 503.833 479.7 Q504.967 481.413 506.981 481.413 Q508.995 481.413 510.129 479.7 Q511.287 477.987 511.287 474.932 Q511.287 471.945 510.129 470.209 Q508.972 468.473 506.981 468.473 M527.884 465.533 L531.587 465.533 L509.967 501.39 L506.263 501.39 L527.884 465.533 M506.981 465.533 Q510.638 465.533 512.814 468.08 Q514.99 470.603 514.99 474.932 Q514.99 479.307 512.814 481.83 Q510.662 484.353 506.981 484.353 Q503.3 484.353 501.148 481.83 Q499.018 479.283 499.018 474.932 Q499.018 470.626 501.171 468.08 Q503.324 465.533 506.981 465.533 Z" fill="#000000" fill-rule="nonzero" fill-opacity="1"></path><path clip-path="url(#clip320)" d="M47.616 556.014 L191.537 556.014 L191.537 514.542 L47.616 514.542 L47.616 556.014  Z" fill="#ac8d18" fill-rule="evenodd" fill-opacity="1"></path>
<polyline clip-path="url(#clip320)" style="stroke:#000000; stroke-linecap:round; stroke-linejoin:round; stroke-width:4; stroke-opacity:1; fill:none" points="47.616,556.014 191.537,556.014 191.537,514.542 47.616,514.542 47.616,556.014 "></polyline>
<path clip-path="url(#clip320)" d="M231.357 522.605 L225.015 539.804 L237.723 539.804 L231.357 522.605 M228.719 517.998 L234.019 517.998 L247.191 552.558 L242.33 552.558 L239.181 543.693 L223.603 543.693 L220.455 552.558 L215.524 552.558 L228.719 517.998 Z" fill="#000000" fill-rule="nonzero" fill-opacity="1"></path><path clip-path="url(#clip320)" d="M268.579 527.397 L268.579 531.424 Q266.774 530.498 264.829 530.035 Q262.885 529.573 260.802 529.573 Q257.63 529.573 256.033 530.545 Q254.459 531.517 254.459 533.461 Q254.459 534.943 255.593 535.799 Q256.728 536.633 260.154 537.397 L261.612 537.721 Q266.149 538.693 268.047 540.475 Q269.968 542.234 269.968 545.406 Q269.968 549.017 267.098 551.123 Q264.251 553.23 259.251 553.23 Q257.167 553.23 254.899 552.813 Q252.654 552.42 250.154 551.609 L250.154 547.211 Q252.515 548.438 254.806 549.063 Q257.098 549.665 259.343 549.665 Q262.353 549.665 263.973 548.646 Q265.593 547.605 265.593 545.73 Q265.593 543.994 264.413 543.068 Q263.255 542.142 259.297 541.285 L257.816 540.938 Q253.857 540.105 252.098 538.392 Q250.339 536.656 250.339 533.647 Q250.339 529.989 252.931 527.998 Q255.524 526.008 260.292 526.008 Q262.654 526.008 264.737 526.355 Q266.82 526.702 268.579 527.397 Z" fill="#000000" fill-rule="nonzero" fill-opacity="1"></path><path clip-path="url(#clip320)" d="M293.278 527.397 L293.278 531.424 Q291.473 530.498 289.528 530.035 Q287.584 529.573 285.501 529.573 Q282.329 529.573 280.732 530.545 Q279.158 531.517 279.158 533.461 Q279.158 534.943 280.292 535.799 Q281.427 536.633 284.853 537.397 L286.311 537.721 Q290.848 538.693 292.746 540.475 Q294.667 542.234 294.667 545.406 Q294.667 549.017 291.797 551.123 Q288.95 553.23 283.95 553.23 Q281.866 553.23 279.598 552.813 Q277.353 552.42 274.853 551.609 L274.853 547.211 Q277.214 548.438 279.505 549.063 Q281.797 549.665 284.042 549.665 Q287.052 549.665 288.672 548.646 Q290.292 547.605 290.292 545.73 Q290.292 543.994 289.112 543.068 Q287.954 542.142 283.996 541.285 L282.515 540.938 Q278.556 540.105 276.797 538.392 Q275.038 536.656 275.038 533.647 Q275.038 529.989 277.63 527.998 Q280.223 526.008 284.991 526.008 Q287.353 526.008 289.436 526.355 Q291.519 526.702 293.278 527.397 Z" fill="#000000" fill-rule="nonzero" fill-opacity="1"></path><path clip-path="url(#clip320)" d="M323.625 538.531 L323.625 540.614 L304.042 540.614 Q304.32 545.012 306.681 547.327 Q309.065 549.619 313.301 549.619 Q315.755 549.619 318.047 549.017 Q320.362 548.415 322.63 547.211 L322.63 551.239 Q320.338 552.211 317.931 552.721 Q315.524 553.23 313.047 553.23 Q306.843 553.23 303.209 549.619 Q299.598 546.008 299.598 539.85 Q299.598 533.485 303.024 529.758 Q306.473 526.008 312.306 526.008 Q317.538 526.008 320.57 529.387 Q323.625 532.744 323.625 538.531 M319.366 537.281 Q319.32 533.785 317.399 531.702 Q315.501 529.619 312.352 529.619 Q308.788 529.619 306.635 531.633 Q304.505 533.647 304.181 537.304 L319.366 537.281 Z" fill="#000000" fill-rule="nonzero" fill-opacity="1"></path><path clip-path="url(#clip320)" d="M334.829 519.272 L334.829 526.633 L343.602 526.633 L343.602 529.943 L334.829 529.943 L334.829 544.017 Q334.829 547.188 335.686 548.091 Q336.565 548.994 339.227 548.994 L343.602 548.994 L343.602 552.558 L339.227 552.558 Q334.297 552.558 332.422 550.73 Q330.547 548.878 330.547 544.017 L330.547 529.943 L327.422 529.943 L327.422 526.633 L330.547 526.633 L330.547 519.272 L334.829 519.272 Z" fill="#000000" fill-rule="nonzero" fill-opacity="1"></path><path clip-path="url(#clip320)" d="M364.922 517.998 L383.278 517.998 L383.278 521.934 L369.204 521.934 L369.204 530.406 Q370.222 530.059 371.241 529.897 Q372.259 529.711 373.278 529.711 Q379.065 529.711 382.445 532.883 Q385.824 536.054 385.824 541.471 Q385.824 547.049 382.352 550.151 Q378.88 553.23 372.56 553.23 Q370.384 553.23 368.116 552.859 Q365.871 552.489 363.463 551.748 L363.463 547.049 Q365.547 548.184 367.769 548.739 Q369.991 549.295 372.468 549.295 Q376.472 549.295 378.81 547.188 Q381.148 545.082 381.148 541.471 Q381.148 537.859 378.81 535.753 Q376.472 533.647 372.468 533.647 Q370.593 533.647 368.718 534.063 Q366.866 534.48 364.922 535.36 L364.922 517.998 Z" fill="#000000" fill-rule="nonzero" fill-opacity="1"></path><path clip-path="url(#clip320)" d="M395.523 546.679 L400.407 546.679 L400.407 552.558 L395.523 552.558 L395.523 546.679 M395.523 528.045 L400.407 528.045 L400.407 533.924 L395.523 533.924 L395.523 528.045 Z" fill="#000000" fill-rule="nonzero" fill-opacity="1"></path><path clip-path="url(#clip320)" d="M426.125 517.998 L444.481 517.998 L444.481 521.934 L430.407 521.934 L430.407 530.406 Q431.426 530.059 432.444 529.897 Q433.463 529.711 434.481 529.711 Q440.268 529.711 443.648 532.883 Q447.028 536.054 447.028 541.471 Q447.028 547.049 443.555 550.151 Q440.083 553.23 433.764 553.23 Q431.588 553.23 429.319 552.859 Q427.074 552.489 424.667 551.748 L424.667 547.049 Q426.75 548.184 428.972 548.739 Q431.194 549.295 433.671 549.295 Q437.676 549.295 440.014 547.188 Q442.352 545.082 442.352 541.471 Q442.352 537.859 440.014 535.753 Q437.676 533.647 433.671 533.647 Q431.796 533.647 429.921 534.063 Q428.069 534.48 426.125 535.36 L426.125 517.998 Z" fill="#000000" fill-rule="nonzero" fill-opacity="1"></path><path clip-path="url(#clip320)" d="M470.407 533.924 Q473.764 534.642 475.639 536.91 Q477.537 539.179 477.537 542.512 Q477.537 547.628 474.018 550.429 Q470.5 553.23 464.018 553.23 Q461.842 553.23 459.528 552.79 Q457.236 552.373 454.782 551.517 L454.782 547.003 Q456.727 548.137 459.041 548.716 Q461.356 549.295 463.879 549.295 Q468.277 549.295 470.569 547.559 Q472.884 545.822 472.884 542.512 Q472.884 539.457 470.731 537.744 Q468.602 536.008 464.782 536.008 L460.754 536.008 L460.754 532.165 L464.967 532.165 Q468.416 532.165 470.245 530.799 Q472.074 529.41 472.074 526.818 Q472.074 524.156 470.176 522.744 Q468.301 521.309 464.782 521.309 Q462.861 521.309 460.662 521.725 Q458.463 522.142 455.824 523.022 L455.824 518.855 Q458.486 518.114 460.801 517.744 Q463.139 517.373 465.199 517.373 Q470.523 517.373 473.625 519.804 Q476.727 522.211 476.727 526.332 Q476.727 529.202 475.083 531.193 Q473.439 533.16 470.407 533.924 Z" fill="#000000" fill-rule="nonzero" fill-opacity="1"></path><path clip-path="url(#clip320)" d="M486.402 546.679 L491.287 546.679 L491.287 552.558 L486.402 552.558 L486.402 546.679 Z" fill="#000000" fill-rule="nonzero" fill-opacity="1"></path><path clip-path="url(#clip320)" d="M502.282 548.623 L509.921 548.623 L509.921 522.258 L501.611 523.924 L501.611 519.665 L509.874 517.998 L514.55 517.998 L514.55 548.623 L522.189 548.623 L522.189 552.558 L502.282 552.558 L502.282 548.623 Z" fill="#000000" fill-rule="nonzero" fill-opacity="1"></path><path clip-path="url(#clip320)" d="M561.032 537.35 Q559.018 537.35 557.86 539.063 Q556.726 540.776 556.726 543.832 Q556.726 546.841 557.86 548.577 Q559.018 550.29 561.032 550.29 Q562.999 550.29 564.133 548.577 Q565.291 546.841 565.291 543.832 Q565.291 540.799 564.133 539.086 Q562.999 537.35 561.032 537.35 M561.032 534.41 Q564.689 534.41 566.842 536.957 Q568.995 539.503 568.995 543.832 Q568.995 548.16 566.819 550.707 Q564.666 553.23 561.032 553.23 Q557.328 553.23 555.175 550.707 Q553.022 548.16 553.022 543.832 Q553.022 539.48 555.175 536.957 Q557.351 534.41 561.032 534.41 M537.143 520.313 Q535.152 520.313 533.995 522.049 Q532.86 523.762 532.86 526.772 Q532.86 529.827 533.995 531.54 Q535.129 533.253 537.143 533.253 Q539.157 533.253 540.291 531.54 Q541.448 529.827 541.448 526.772 Q541.448 523.785 540.291 522.049 Q539.134 520.313 537.143 520.313 M558.046 517.373 L561.749 517.373 L540.129 553.23 L536.425 553.23 L558.046 517.373 M537.143 517.373 Q540.8 517.373 542.976 519.92 Q545.152 522.443 545.152 526.772 Q545.152 531.147 542.976 533.67 Q540.823 536.193 537.143 536.193 Q533.462 536.193 531.31 533.67 Q529.18 531.123 529.18 526.772 Q529.18 522.466 531.333 519.92 Q533.485 517.373 537.143 517.373 Z" fill="#000000" fill-rule="nonzero" fill-opacity="1"></path><path clip-path="url(#clip320)" d="M693.746 1490.57 L702.456 1490.57 L713.48 1519.97 L724.562 1490.57 L733.272 1490.57 L733.272 1533.77 L727.571 1533.77 L727.571 1495.84 L716.431 1525.47 L710.558 1525.47 L699.418 1495.84 L699.418 1533.77 L693.746 1533.77 L693.746 1490.57 Z" fill="#000000" fill-rule="nonzero" fill-opacity="1"></path><path clip-path="url(#clip320)" d="M772.363 1516.24 L772.363 1518.84 L747.884 1518.84 Q748.231 1524.34 751.182 1527.23 Q754.163 1530.1 759.458 1530.1 Q762.525 1530.1 765.39 1529.35 Q768.283 1528.59 771.119 1527.09 L771.119 1532.12 Q768.254 1533.34 765.245 1533.98 Q762.236 1534.61 759.14 1534.61 Q751.385 1534.61 746.842 1530.1 Q742.328 1525.58 742.328 1517.89 Q742.328 1509.93 746.611 1505.27 Q750.922 1500.58 758.214 1500.58 Q764.753 1500.58 768.543 1504.81 Q772.363 1509 772.363 1516.24 M767.039 1514.68 Q766.981 1510.31 764.579 1507.7 Q762.207 1505.1 758.272 1505.1 Q753.816 1505.1 751.125 1507.62 Q748.463 1510.13 748.057 1514.7 L767.039 1514.68 Z" fill="#000000" fill-rule="nonzero" fill-opacity="1"></path><path clip-path="url(#clip320)" d="M795.829 1517.48 Q789.377 1517.48 786.888 1518.96 Q784.4 1520.43 784.4 1523.99 Q784.4 1526.83 786.252 1528.51 Q788.132 1530.16 791.344 1530.16 Q795.771 1530.16 798.433 1527.03 Q801.124 1523.88 801.124 1518.67 L801.124 1517.48 L795.829 1517.48 M806.448 1515.28 L806.448 1533.77 L801.124 1533.77 L801.124 1528.85 Q799.301 1531.81 796.581 1533.22 Q793.862 1534.61 789.926 1534.61 Q784.95 1534.61 781.998 1531.83 Q779.076 1529.03 779.076 1524.34 Q779.076 1518.87 782.722 1516.09 Q786.396 1513.32 793.659 1513.32 L801.124 1513.32 L801.124 1512.8 Q801.124 1509.12 798.694 1507.12 Q796.292 1505.1 791.923 1505.1 Q789.145 1505.1 786.512 1505.76 Q783.879 1506.43 781.448 1507.76 L781.448 1502.84 Q784.371 1501.71 787.12 1501.16 Q789.869 1500.58 792.473 1500.58 Q799.504 1500.58 802.976 1504.23 Q806.448 1507.88 806.448 1515.28 Z" fill="#000000" fill-rule="nonzero" fill-opacity="1"></path><path clip-path="url(#clip320)" d="M844.353 1514.21 L844.353 1533.77 L839.029 1533.77 L839.029 1514.39 Q839.029 1509.79 837.235 1507.5 Q835.441 1505.21 831.853 1505.21 Q827.542 1505.21 825.054 1507.96 Q822.565 1510.71 822.565 1515.46 L822.565 1533.77 L817.212 1533.77 L817.212 1501.37 L822.565 1501.37 L822.565 1506.4 Q824.475 1503.48 827.05 1502.03 Q829.654 1500.58 833.04 1500.58 Q838.624 1500.58 841.489 1504.06 Q844.353 1507.5 844.353 1514.21 Z" fill="#000000" fill-rule="nonzero" fill-opacity="1"></path><path clip-path="url(#clip320)" d="M894.527 1513.52 Q896.407 1514.16 898.172 1516.24 Q899.966 1518.32 901.76 1521.97 L907.692 1533.77 L901.413 1533.77 L895.887 1522.69 Q893.745 1518.35 891.72 1516.93 Q889.723 1515.52 886.251 1515.52 L879.885 1515.52 L879.885 1533.77 L874.041 1533.77 L874.041 1490.57 L887.235 1490.57 Q894.642 1490.57 898.288 1493.67 Q901.934 1496.77 901.934 1503.02 Q901.934 1507.09 900.024 1509.79 Q898.143 1512.48 894.527 1513.52 M879.885 1495.38 L879.885 1510.71 L887.235 1510.71 Q891.459 1510.71 893.601 1508.77 Q895.771 1506.81 895.771 1503.02 Q895.771 1499.22 893.601 1497.31 Q891.459 1495.38 887.235 1495.38 L879.885 1495.38 Z" fill="#000000" fill-rule="nonzero" fill-opacity="1"></path><path clip-path="url(#clip320)" d="M940.041 1516.24 L940.041 1518.84 L915.562 1518.84 Q915.91 1524.34 918.861 1527.23 Q921.841 1530.1 927.136 1530.1 Q930.203 1530.1 933.068 1529.35 Q935.962 1528.59 938.797 1527.09 L938.797 1532.12 Q935.933 1533.34 932.923 1533.98 Q929.914 1534.61 926.818 1534.61 Q919.063 1534.61 914.521 1530.1 Q910.007 1525.58 910.007 1517.89 Q910.007 1509.93 914.289 1505.27 Q918.601 1500.58 925.892 1500.58 Q932.431 1500.58 936.222 1504.81 Q940.041 1509 940.041 1516.24 M934.717 1514.68 Q934.659 1510.31 932.258 1507.7 Q929.885 1505.1 925.95 1505.1 Q921.494 1505.1 918.803 1507.62 Q916.141 1510.13 915.736 1514.7 L934.717 1514.68 Z" fill="#000000" fill-rule="nonzero" fill-opacity="1"></path><path clip-path="url(#clip320)" d="M954.046 1492.16 L954.046 1501.37 L965.012 1501.37 L965.012 1505.5 L954.046 1505.5 L954.046 1523.1 Q954.046 1527.06 955.117 1528.19 Q956.216 1529.32 959.544 1529.32 L965.012 1529.32 L965.012 1533.77 L959.544 1533.77 Q953.38 1533.77 951.037 1531.49 Q948.693 1529.17 948.693 1523.1 L948.693 1505.5 L944.787 1505.5 L944.787 1501.37 L948.693 1501.37 L948.693 1492.16 L954.046 1492.16 Z" fill="#000000" fill-rule="nonzero" fill-opacity="1"></path><path clip-path="url(#clip320)" d="M971.465 1520.98 L971.465 1501.37 L976.789 1501.37 L976.789 1520.78 Q976.789 1525.38 978.583 1527.7 Q980.377 1529.98 983.965 1529.98 Q988.276 1529.98 990.764 1527.23 Q993.282 1524.48 993.282 1519.74 L993.282 1501.37 L998.606 1501.37 L998.606 1533.77 L993.282 1533.77 L993.282 1528.8 Q991.343 1531.75 988.768 1533.19 Q986.222 1534.61 982.836 1534.61 Q977.252 1534.61 974.358 1531.14 Q971.465 1527.67 971.465 1520.98 M984.862 1500.58 L984.862 1500.58 Z" fill="#000000" fill-rule="nonzero" fill-opacity="1"></path><path clip-path="url(#clip320)" d="M1028.35 1506.34 Q1027.45 1505.82 1026.38 1505.59 Q1025.34 1505.33 1024.07 1505.33 Q1019.55 1505.33 1017.12 1508.28 Q1014.72 1511.2 1014.72 1516.7 L1014.72 1533.77 L1009.37 1533.77 L1009.37 1501.37 L1014.72 1501.37 L1014.72 1506.4 Q1016.4 1503.45 1019.09 1502.03 Q1021.78 1500.58 1025.63 1500.58 Q1026.18 1500.58 1026.85 1500.67 Q1027.51 1500.73 1028.32 1500.87 L1028.35 1506.34 Z" fill="#000000" fill-rule="nonzero" fill-opacity="1"></path><path clip-path="url(#clip320)" d="M1059.83 1514.21 L1059.83 1533.77 L1054.51 1533.77 L1054.51 1514.39 Q1054.51 1509.79 1052.71 1507.5 Q1050.92 1505.21 1047.33 1505.21 Q1043.02 1505.21 1040.53 1507.96 Q1038.04 1510.71 1038.04 1515.46 L1038.04 1533.77 L1032.69 1533.77 L1032.69 1501.37 L1038.04 1501.37 L1038.04 1506.4 Q1039.95 1503.48 1042.53 1502.03 Q1045.13 1500.58 1048.52 1500.58 Q1054.1 1500.58 1056.97 1504.06 Q1059.83 1507.5 1059.83 1514.21 Z" fill="#000000" fill-rule="nonzero" fill-opacity="1"></path><path clip-path="url(#clip320)" d="M1071.81 1526.42 L1077.92 1526.42 L1077.92 1533.77 L1071.81 1533.77 L1071.81 1526.42 M1071.81 1503.13 L1077.92 1503.13 L1077.92 1510.48 L1071.81 1510.48 L1071.81 1503.13 Z" fill="#000000" fill-rule="nonzero" fill-opacity="1"></path><path clip-path="url(#clip320)" d="M1122.51 1494.42 Q1117.99 1494.42 1115.71 1498.88 Q1113.45 1503.3 1113.45 1512.22 Q1113.45 1521.1 1115.71 1525.56 Q1117.99 1529.98 1122.51 1529.98 Q1127.05 1529.98 1129.31 1525.56 Q1131.59 1521.1 1131.59 1512.22 Q1131.59 1503.3 1129.31 1498.88 Q1127.05 1494.42 1122.51 1494.42 M1122.51 1489.79 Q1129.77 1489.79 1133.59 1495.55 Q1137.44 1501.28 1137.44 1512.22 Q1137.44 1523.12 1133.59 1528.88 Q1129.77 1534.61 1122.51 1534.61 Q1115.24 1534.61 1111.39 1528.88 Q1107.58 1523.12 1107.58 1512.22 Q1107.58 1501.28 1111.39 1495.55 Q1115.24 1489.79 1122.51 1489.79 Z" fill="#000000" fill-rule="nonzero" fill-opacity="1"></path><path clip-path="url(#clip320)" d="M1147.71 1526.42 L1153.81 1526.42 L1153.81 1533.77 L1147.71 1533.77 L1147.71 1526.42 Z" fill="#000000" fill-rule="nonzero" fill-opacity="1"></path><path clip-path="url(#clip320)" d="M1171.58 1528.85 L1191.98 1528.85 L1191.98 1533.77 L1164.55 1533.77 L1164.55 1528.85 Q1167.88 1525.41 1173.6 1519.62 Q1179.36 1513.81 1180.84 1512.13 Q1183.65 1508.98 1184.74 1506.81 Q1185.87 1504.61 1185.87 1502.49 Q1185.87 1499.05 1183.44 1496.88 Q1181.04 1494.71 1177.16 1494.71 Q1174.42 1494.71 1171.35 1495.67 Q1168.31 1496.62 1164.84 1498.56 L1164.84 1492.66 Q1168.37 1491.24 1171.43 1490.52 Q1174.5 1489.79 1177.05 1489.79 Q1183.76 1489.79 1187.75 1493.15 Q1191.75 1496.5 1191.75 1502.12 Q1191.75 1504.78 1190.73 1507.18 Q1189.75 1509.55 1187.12 1512.8 Q1186.39 1513.63 1182.52 1517.66 Q1178.64 1521.65 1171.58 1528.85 Z" fill="#000000" fill-rule="nonzero" fill-opacity="1"></path><path clip-path="url(#clip320)" d="M1202.77 1490.57 L1230.55 1490.57 L1230.55 1493.06 L1214.87 1533.77 L1208.76 1533.77 L1223.52 1495.49 L1202.77 1495.49 L1202.77 1490.57 Z" fill="#000000" fill-rule="nonzero" fill-opacity="1"></path><path clip-path="url(#clip320)" d="M1242.12 1532.88 L1242.12 1527.55 Q1244.32 1528.59 1246.58 1529.14 Q1248.84 1529.69 1251.01 1529.69 Q1256.79 1529.69 1259.83 1525.82 Q1262.9 1521.91 1263.33 1513.98 Q1261.65 1516.47 1259.08 1517.8 Q1256.5 1519.13 1253.38 1519.13 Q1246.9 1519.13 1243.11 1515.23 Q1239.35 1511.29 1239.35 1504.49 Q1239.35 1497.84 1243.28 1493.81 Q1247.22 1489.79 1253.75 1489.79 Q1261.25 1489.79 1265.18 1495.55 Q1269.15 1501.28 1269.15 1512.22 Q1269.15 1522.43 1264.29 1528.54 Q1259.46 1534.61 1251.27 1534.61 Q1249.07 1534.61 1246.81 1534.18 Q1244.55 1533.74 1242.12 1532.88 M1253.75 1514.56 Q1257.69 1514.56 1259.98 1511.87 Q1262.29 1509.18 1262.29 1504.49 Q1262.29 1499.83 1259.98 1497.14 Q1257.69 1494.42 1253.75 1494.42 Q1249.82 1494.42 1247.51 1497.14 Q1245.22 1499.83 1245.22 1504.49 Q1245.22 1509.18 1247.51 1511.87 Q1249.82 1514.56 1253.75 1514.56 Z" fill="#000000" fill-rule="nonzero" fill-opacity="1"></path><path clip-path="url(#clip320)" d="M1280.26 1503.13 L1286.36 1503.13 L1286.36 1510.48 L1280.26 1510.48 L1280.26 1503.13 M1280.26 1526.42 L1286.36 1526.42 L1286.36 1531.4 L1281.62 1540.66 L1277.89 1540.66 L1280.26 1531.4 L1280.26 1526.42 Z" fill="#000000" fill-rule="nonzero" fill-opacity="1"></path><path clip-path="url(#clip320)" d="M1323.78 1513.14 L1323.78 1528.97 L1333.15 1528.97 Q1337.87 1528.97 1340.13 1527.03 Q1342.41 1525.06 1342.41 1521.04 Q1342.41 1516.99 1340.13 1515.08 Q1337.87 1513.14 1333.15 1513.14 L1323.78 1513.14 M1323.78 1495.38 L1323.78 1508.4 L1332.43 1508.4 Q1336.71 1508.4 1338.8 1506.81 Q1340.91 1505.19 1340.91 1501.89 Q1340.91 1498.62 1338.8 1497 Q1336.71 1495.38 1332.43 1495.38 L1323.78 1495.38 M1317.93 1490.57 L1332.86 1490.57 Q1339.55 1490.57 1343.16 1493.35 Q1346.78 1496.13 1346.78 1501.25 Q1346.78 1505.21 1344.93 1507.56 Q1343.08 1509.9 1339.49 1510.48 Q1343.8 1511.41 1346.17 1514.36 Q1348.58 1517.28 1348.58 1521.68 Q1348.58 1527.47 1344.64 1530.62 Q1340.7 1533.77 1333.44 1533.77 L1317.93 1533.77 L1317.93 1490.57 Z" fill="#000000" fill-rule="nonzero" fill-opacity="1"></path><path clip-path="url(#clip320)" d="M1386.07 1516.24 L1386.07 1518.84 L1361.6 1518.84 Q1361.94 1524.34 1364.89 1527.23 Q1367.87 1530.1 1373.17 1530.1 Q1376.24 1530.1 1379.1 1529.35 Q1382 1528.59 1384.83 1527.09 L1384.83 1532.12 Q1381.97 1533.34 1378.96 1533.98 Q1375.95 1534.61 1372.85 1534.61 Q1365.1 1534.61 1360.55 1530.1 Q1356.04 1525.58 1356.04 1517.89 Q1356.04 1509.93 1360.32 1505.27 Q1364.63 1500.58 1371.93 1500.58 Q1378.46 1500.58 1382.26 1504.81 Q1386.07 1509 1386.07 1516.24 M1380.75 1514.68 Q1380.69 1510.31 1378.29 1507.7 Q1375.92 1505.1 1371.98 1505.1 Q1367.53 1505.1 1364.84 1507.62 Q1362.17 1510.13 1361.77 1514.7 L1380.75 1514.68 Z" fill="#000000" fill-rule="nonzero" fill-opacity="1"></path><path clip-path="url(#clip320)" d="M1421.75 1514.21 L1421.75 1533.77 L1416.43 1533.77 L1416.43 1514.39 Q1416.43 1509.79 1414.63 1507.5 Q1412.84 1505.21 1409.25 1505.21 Q1404.94 1505.21 1402.45 1507.96 Q1399.96 1510.71 1399.96 1515.46 L1399.96 1533.77 L1394.61 1533.77 L1394.61 1501.37 L1399.96 1501.37 L1399.96 1506.4 Q1401.87 1503.48 1404.45 1502.03 Q1407.05 1500.58 1410.44 1500.58 Q1416.02 1500.58 1418.89 1504.06 Q1421.75 1507.5 1421.75 1514.21 Z" fill="#000000" fill-rule="nonzero" fill-opacity="1"></path><path clip-path="url(#clip320)" d="M1455.69 1502.61 L1455.69 1507.59 Q1453.44 1506.34 1451.15 1505.73 Q1448.89 1505.1 1446.58 1505.1 Q1441.4 1505.1 1438.53 1508.4 Q1435.67 1511.67 1435.67 1517.6 Q1435.67 1523.53 1438.53 1526.83 Q1441.4 1530.1 1446.58 1530.1 Q1448.89 1530.1 1451.15 1529.49 Q1453.44 1528.85 1455.69 1527.61 L1455.69 1532.53 Q1453.46 1533.57 1451.06 1534.09 Q1448.69 1534.61 1446 1534.61 Q1438.68 1534.61 1434.37 1530.01 Q1430.06 1525.41 1430.06 1517.6 Q1430.06 1509.67 1434.4 1505.13 Q1438.77 1500.58 1446.35 1500.58 Q1448.81 1500.58 1451.15 1501.11 Q1453.49 1501.6 1455.69 1502.61 Z" fill="#000000" fill-rule="nonzero" fill-opacity="1"></path><path clip-path="url(#clip320)" d="M1491.89 1514.21 L1491.89 1533.77 L1486.57 1533.77 L1486.57 1514.39 Q1486.57 1509.79 1484.77 1507.5 Q1482.98 1505.21 1479.39 1505.21 Q1475.08 1505.21 1472.59 1507.96 Q1470.1 1510.71 1470.1 1515.46 L1470.1 1533.77 L1464.75 1533.77 L1464.75 1488.75 L1470.1 1488.75 L1470.1 1506.4 Q1472.01 1503.48 1474.59 1502.03 Q1477.19 1500.58 1480.58 1500.58 Q1486.16 1500.58 1489.03 1504.06 Q1491.89 1507.5 1491.89 1514.21 Z" fill="#000000" fill-rule="nonzero" fill-opacity="1"></path><path clip-path="url(#clip320)" d="M1527.74 1507.59 Q1529.74 1504 1532.52 1502.29 Q1535.29 1500.58 1539.05 1500.58 Q1544.12 1500.58 1546.87 1504.14 Q1549.62 1507.67 1549.62 1514.21 L1549.62 1533.77 L1544.26 1533.77 L1544.26 1514.39 Q1544.26 1509.73 1542.61 1507.47 Q1540.96 1505.21 1537.58 1505.21 Q1533.44 1505.21 1531.04 1507.96 Q1528.64 1510.71 1528.64 1515.46 L1528.64 1533.77 L1523.28 1533.77 L1523.28 1514.39 Q1523.28 1509.7 1521.64 1507.47 Q1519.99 1505.21 1516.54 1505.21 Q1512.46 1505.21 1510.06 1507.99 Q1507.66 1510.74 1507.66 1515.46 L1507.66 1533.77 L1502.31 1533.77 L1502.31 1501.37 L1507.66 1501.37 L1507.66 1506.4 Q1509.48 1503.42 1512.03 1502 Q1514.58 1500.58 1518.08 1500.58 Q1521.61 1500.58 1524.07 1502.38 Q1526.55 1504.17 1527.74 1507.59 Z" fill="#000000" fill-rule="nonzero" fill-opacity="1"></path><path clip-path="url(#clip320)" d="M1574.96 1517.48 Q1568.51 1517.48 1566.02 1518.96 Q1563.53 1520.43 1563.53 1523.99 Q1563.53 1526.83 1565.39 1528.51 Q1567.27 1530.16 1570.48 1530.16 Q1574.9 1530.16 1577.57 1527.03 Q1580.26 1523.88 1580.26 1518.67 L1580.26 1517.48 L1574.96 1517.48 M1585.58 1515.28 L1585.58 1533.77 L1580.26 1533.77 L1580.26 1528.85 Q1578.43 1531.81 1575.72 1533.22 Q1573 1534.61 1569.06 1534.61 Q1564.08 1534.61 1561.13 1531.83 Q1558.21 1529.03 1558.21 1524.34 Q1558.21 1518.87 1561.86 1516.09 Q1565.53 1513.32 1572.79 1513.32 L1580.26 1513.32 L1580.26 1512.8 Q1580.26 1509.12 1577.83 1507.12 Q1575.43 1505.1 1571.06 1505.1 Q1568.28 1505.1 1565.65 1505.76 Q1563.01 1506.43 1560.58 1507.76 L1560.58 1502.84 Q1563.5 1501.71 1566.25 1501.16 Q1569 1500.58 1571.61 1500.58 Q1578.64 1500.58 1582.11 1504.23 Q1585.58 1507.88 1585.58 1515.28 Z" fill="#000000" fill-rule="nonzero" fill-opacity="1"></path><path clip-path="url(#clip320)" d="M1615.33 1506.34 Q1614.43 1505.82 1613.36 1505.59 Q1612.32 1505.33 1611.04 1505.33 Q1606.53 1505.33 1604.1 1508.28 Q1601.7 1511.2 1601.7 1516.7 L1601.7 1533.77 L1596.35 1533.77 L1596.35 1501.37 L1601.7 1501.37 L1601.7 1506.4 Q1603.38 1503.45 1606.07 1502.03 Q1608.76 1500.58 1612.61 1500.58 Q1613.16 1500.58 1613.82 1500.67 Q1614.49 1500.73 1615.3 1500.87 L1615.33 1506.34 Z" fill="#000000" fill-rule="nonzero" fill-opacity="1"></path><path clip-path="url(#clip320)" d="M1620.71 1488.75 L1626.06 1488.75 L1626.06 1515.34 L1641.95 1501.37 L1648.75 1501.37 L1631.56 1516.53 L1649.47 1533.77 L1642.53 1533.77 L1626.06 1517.95 L1626.06 1533.77 L1620.71 1533.77 L1620.71 1488.75 Z" fill="#000000" fill-rule="nonzero" fill-opacity="1"></path><path clip-path="url(#clip320)" d="M1656.59 1526.42 L1662.69 1526.42 L1662.69 1533.77 L1656.59 1533.77 L1656.59 1526.42 M1656.59 1503.13 L1662.69 1503.13 L1662.69 1510.48 L1656.59 1510.48 L1656.59 1503.13 Z" fill="#000000" fill-rule="nonzero" fill-opacity="1"></path><path clip-path="url(#clip320)" d="M1707.28 1494.42 Q1702.77 1494.42 1700.48 1498.88 Q1698.23 1503.3 1698.23 1512.22 Q1698.23 1521.1 1700.48 1525.56 Q1702.77 1529.98 1707.28 1529.98 Q1711.83 1529.98 1714.08 1525.56 Q1716.37 1521.1 1716.37 1512.22 Q1716.37 1503.3 1714.08 1498.88 Q1711.83 1494.42 1707.28 1494.42 M1707.28 1489.79 Q1714.55 1489.79 1718.36 1495.55 Q1722.21 1501.28 1722.21 1512.22 Q1722.21 1523.12 1718.36 1528.88 Q1714.55 1534.61 1707.28 1534.61 Q1700.02 1534.61 1696.17 1528.88 Q1692.35 1523.12 1692.35 1512.22 Q1692.35 1501.28 1696.17 1495.55 Q1700.02 1489.79 1707.28 1489.79 Z" fill="#000000" fill-rule="nonzero" fill-opacity="1"></path><path clip-path="url(#clip320)" d="M1732.49 1526.42 L1738.59 1526.42 L1738.59 1533.77 L1732.49 1533.77 L1732.49 1526.42 Z" fill="#000000" fill-rule="nonzero" fill-opacity="1"></path><path clip-path="url(#clip320)" d="M1752.33 1528.85 L1761.88 1528.85 L1761.88 1495.9 L1751.5 1497.98 L1751.5 1492.66 L1761.83 1490.57 L1767.67 1490.57 L1767.67 1528.85 L1777.22 1528.85 L1777.22 1533.77 L1752.33 1533.77 L1752.33 1528.85 Z" fill="#000000" fill-rule="nonzero" fill-opacity="1"></path><path clip-path="url(#clip320)" d="M1794.06 1528.85 L1814.46 1528.85 L1814.46 1533.77 L1787.03 1533.77 L1787.03 1528.85 Q1790.36 1525.41 1796.08 1519.62 Q1801.84 1513.81 1803.32 1512.13 Q1806.12 1508.98 1807.22 1506.81 Q1808.35 1504.61 1808.35 1502.49 Q1808.35 1499.05 1805.92 1496.88 Q1803.52 1494.71 1799.64 1494.71 Q1796.89 1494.71 1793.83 1495.67 Q1790.79 1496.62 1787.32 1498.56 L1787.32 1492.66 Q1790.85 1491.24 1793.91 1490.52 Q1796.98 1489.79 1799.53 1489.79 Q1806.24 1489.79 1810.23 1493.15 Q1814.23 1496.5 1814.23 1502.12 Q1814.23 1504.78 1813.21 1507.18 Q1812.23 1509.55 1809.6 1512.8 Q1808.87 1513.63 1805 1517.66 Q1801.12 1521.65 1794.06 1528.85 Z" fill="#000000" fill-rule="nonzero" fill-opacity="1"></path><path clip-path="url(#clip320)" d="M1826.78 1490.57 L1849.73 1490.57 L1849.73 1495.49 L1832.14 1495.49 L1832.14 1506.08 Q1833.41 1505.65 1834.68 1505.45 Q1835.96 1505.21 1837.23 1505.21 Q1844.46 1505.21 1848.69 1509.18 Q1852.91 1513.14 1852.91 1519.91 Q1852.91 1526.89 1848.57 1530.76 Q1844.23 1534.61 1836.33 1534.61 Q1833.61 1534.61 1830.78 1534.15 Q1827.97 1533.69 1824.96 1532.76 L1824.96 1526.89 Q1827.57 1528.3 1830.34 1529 Q1833.12 1529.69 1836.22 1529.69 Q1841.22 1529.69 1844.15 1527.06 Q1847.07 1524.43 1847.07 1519.91 Q1847.07 1515.4 1844.15 1512.77 Q1841.22 1510.13 1836.22 1510.13 Q1833.87 1510.13 1831.53 1510.65 Q1829.21 1511.17 1826.78 1512.27 L1826.78 1490.57 Z" fill="#000000" fill-rule="nonzero" fill-opacity="1"></path></svg>